<?xml version="1.0" standalone="no"?>
<!DOCTYPE svg PUBLIC "-//W3C//DTD SVG 20010904//EN"
 "http://www.w3.org/TR/2001/REC-SVG-20010904/DTD/svg10.dtd">
<svg version="1.0" xmlns="http://www.w3.org/2000/svg"
 width="640.000000pt" height="480.000000pt" viewBox="0 0 640.000000 480.000000"
 preserveAspectRatio="xMidYMid meet">

<g transform="translate(0.000000,480.000000) scale(0.100000,-0.100000)"
fill="#000000" stroke="none">
<path d="M0 4060 l0 -740 48 0 c119 0 169 -32 69 -43 -29 -4 -68 -12 -86 -18
l-32 -11 2 -142 c1 -145 10 -182 35 -149 12 16 13 15 14 -14 0 -17 -5 -35 -10
-38 -6 -4 -10 -21 -9 -38 1 -18 -1 -43 -6 -56 -7 -24 -7 -24 19 4 27 29 37 73
13 58 -16 -10 47 70 70 88 17 13 17 13 4 -6 -8 -11 -26 -32 -40 -47 -14 -16
-21 -28 -17 -28 13 0 70 51 81 73 5 11 27 34 47 50 37 30 39 30 92 18 71 -16
160 -64 174 -95 5 -13 14 -44 17 -70 4 -25 9 -46 11 -46 12 0 74 78 74 95 l1
20 8 -20 c5 -11 4 -25 -1 -32 -14 -18 1 -55 20 -51 12 3 16 12 14 31 -3 26 -1
27 18 17 12 -6 27 -9 34 -7 11 4 10 -2 0 -31 -7 -21 -13 -50 -14 -65 0 -42 40
-33 62 13 9 19 23 42 30 50 8 8 26 34 42 58 27 40 45 57 31 30 -4 -7 5 0 18
16 24 27 25 28 35 9 6 -11 31 -24 60 -31 56 -15 95 -39 86 -53 -3 -6 4 -21 17
-35 12 -13 18 -24 13 -25 -5 0 1 -4 14 -9 12 -5 22 -15 22 -22 0 -10 -3 -10
-9 1 -6 9 -18 12 -32 8 -13 -3 -29 -1 -36 5 -16 13 -63 -15 -63 -37 0 -20 -40
-41 -50 -25 -5 8 -9 5 -13 -9 -3 -12 -1 -21 4 -21 5 0 9 -7 9 -15 0 -8 5 -15
10 -15 6 0 10 6 10 13 0 8 3 7 10 -3 12 -19 23 -7 24 27 1 19 7 29 21 31 11 2
28 11 38 20 9 8 20 12 23 9 4 -4 -1 -9 -10 -13 -35 -14 -13 -24 53 -24 79 0
74 -8 87 142 6 81 9 88 46 132 44 52 58 55 34 7 -17 -32 -17 -51 -2 -62 5 -4
11 -30 14 -58 2 -28 9 -51 14 -51 6 0 7 26 3 65 -6 53 -5 65 6 63 8 -2 20 -11
27 -21 12 -16 16 -15 57 19 24 19 54 52 65 72 20 33 23 35 35 19 14 -20 35
-23 35 -4 1 7 6 5 14 -6 11 -14 15 -15 24 -4 9 10 8 17 0 25 -9 9 -8 12 5 12
9 0 17 -4 17 -9 0 -5 17 -15 38 -21 84 -27 151 -71 186 -124 33 -48 35 -54 25
-89 -6 -22 -8 -45 -5 -52 2 -7 -2 -16 -10 -19 -8 -3 -14 -11 -14 -17 0 -8 4
-8 15 1 13 10 15 9 15 -11 1 -47 18 4 22 66 3 33 10 69 16 80 6 11 23 46 36
77 14 32 34 66 45 77 19 19 20 19 37 0 9 -10 21 -19 26 -19 16 0 59 -53 54
-67 -3 -7 -2 -13 3 -13 4 0 13 -10 18 -22 10 -22 11 -22 28 14 10 20 21 35 24
33 4 -2 17 12 30 31 13 19 32 34 43 34 10 0 16 -4 13 -10 -3 -5 0 -7 8 -4 24
9 35 -19 40 -112 6 -88 5 -92 -15 -98 -12 -3 -19 -8 -15 -12 4 -4 -1 -13 -10
-20 -23 -16 -8 -64 26 -80 13 -7 26 -17 30 -22 3 -5 40 -14 81 -18 l75 -9 1
-55 c0 -30 -4 -60 -8 -67 -8 -10 17 -33 37 -33 4 0 5 34 3 75 -3 74 -3 75 22
75 36 0 75 -23 72 -42 -1 -9 12 -25 33 -38 19 -12 35 -25 35 -30 0 -15 33 -20
48 -8 12 11 16 11 20 0 7 -21 32 -42 50 -42 9 0 44 6 77 13 33 7 76 10 94 6
19 -4 40 -5 48 -2 26 10 12 22 -34 29 -46 7 -47 8 -18 15 17 4 70 16 119 26
49 10 91 24 93 31 3 6 13 12 23 12 10 0 20 8 23 18 2 12 17 22 37 25 76 16
125 3 113 -29 -6 -17 -33 -17 351 -3 308 11 309 11 330 36 26 29 137 59 165
43 10 -5 21 -7 24 -4 2 3 22 -6 42 -21 21 -14 41 -25 45 -25 5 0 30 22 57 50
26 27 54 50 62 50 8 0 22 7 31 15 23 21 56 8 80 -31 12 -18 31 -36 43 -40 12
-3 30 -16 39 -28 17 -21 21 -21 290 -18 150 1 351 5 446 8 171 7 190 12 161
41 -7 7 -7 16 0 29 5 11 12 31 15 46 5 21 10 26 24 21 9 -4 20 -11 23 -15 3
-5 53 -10 110 -12 98 -3 107 -5 150 -34 25 -17 52 -38 58 -46 11 -13 24 -6 93
49 44 36 83 66 86 66 4 1 16 3 27 6 89 18 110 15 162 -20 l51 -34 21 28 c17
22 30 29 56 29 28 0 35 -4 35 -19 0 -20 -18 -31 -51 -31 -10 0 -19 -4 -19 -8
0 -10 -96 -46 -125 -47 -34 -2 -160 -28 -168 -35 -5 -4 -1 -14 7 -23 9 -9 16
-20 16 -26 0 -17 -18 -13 -29 7 -9 16 -10 16 -16 0 -9 -24 -42 -23 -82 2 -27
16 -33 17 -33 5 0 -8 -5 -15 -11 -15 -5 0 -7 -5 -4 -11 4 -6 14 -8 22 -4 18 6
53 -21 53 -42 0 -7 5 -13 10 -13 6 0 10 -7 10 -15 0 -10 9 -15 28 -14 15 0 45
-4 67 -10 50 -13 136 2 191 33 31 17 40 29 44 56 5 33 8 35 58 44 l52 10 0
293 c0 233 -3 293 -12 287 -10 -6 -10 -4 0 7 9 10 12 130 12 527 l0 514 -35
-6 c-48 -9 -48 18 0 35 31 12 35 17 35 49 0 19 -4 30 -8 25 -19 -27 -117 -86
-143 -87 -16 -1 -32 -5 -35 -10 -3 -5 -18 -14 -32 -20 l-27 -11 30 -7 c29 -6
28 -7 -21 -19 -36 -9 -55 -19 -64 -36 -10 -19 -17 -22 -30 -15 -24 13 -32 48
-13 58 12 7 13 16 4 46 -8 31 -6 47 10 88 11 28 19 69 19 92 -1 42 12 114 23
133 11 18 -24 111 -43 116 -9 2 -23 18 -31 36 -22 49 -60 61 -198 61 -113 0
-125 -2 -172 -27 -43 -24 -93 -70 -152 -143 -6 -8 -18 -28 -25 -44 -8 -18 -18
-26 -27 -22 -9 3 -12 0 -8 -10 4 -12 1 -13 -20 -5 -14 5 -27 8 -30 5 -11 -11
-47 -12 -55 -1 -24 29 -54 226 -33 213 10 -7 23 19 14 28 -4 3 -16 6 -27 6
-15 0 -17 -3 -8 -8 14 -9 -1 -18 -78 -47 -43 -16 -45 -16 -58 3 -9 14 -20 18
-35 14 -22 -6 -22 -6 2 -12 14 -3 26 -10 28 -17 6 -17 -28 -25 -45 -11 -13 11
-15 10 -9 -4 7 -20 0 -23 -21 -9 -20 12 -11 44 16 57 14 7 19 14 13 18 -6 4
-19 -2 -31 -14 -27 -27 -38 -25 -32 5 l4 25 -1107 0 c-1033 -1 -1106 -2 -1100
-18 15 -35 18 -112 5 -127 -16 -20 -54 -20 -47 -1 3 8 -1 17 -10 20 -9 4 -13
14 -10 26 4 14 0 20 -13 20 -26 0 -42 24 -34 54 6 25 5 26 -38 26 -24 0 -49
-5 -56 -12 -9 -9 -15 -9 -24 0 -14 14 -78 16 -78 3 0 -5 -10 -11 -22 -13 -12
-2 -23 -8 -25 -14 -5 -15 38 -27 105 -29 40 -2 59 -8 77 -25 31 -29 17 -53
-29 -49 -17 2 -38 -1 -46 -6 -18 -11 -49 -14 -55 -5 -8 12 -55 -1 -55 -15 0
-8 -7 -21 -16 -29 -8 -9 -12 -16 -8 -16 4 0 -1 -9 -11 -20 -10 -11 -29 -20
-42 -20 -13 0 -26 -7 -29 -15 -4 -8 -18 -15 -32 -15 -24 0 -25 -1 -7 -13 14
-11 15 -16 5 -22 -9 -5 -19 0 -31 13 -25 32 -46 29 -25 -3 16 -24 16 -26 -6
-34 -15 -5 -27 -4 -36 5 -18 19 -62 18 -62 -1 0 -15 -10 -19 -41 -16 -9 1 -22
-5 -29 -14 -11 -13 -10 -15 2 -10 10 4 17 -1 21 -14 3 -12 0 -18 -7 -15 -6 2
-17 0 -25 -5 -12 -8 -13 -14 -3 -36 16 -34 16 -35 -11 -35 -32 0 -89 -29 -84
-43 6 -21 45 -20 56 1 6 11 24 22 41 24 36 5 40 -7 5 -16 -14 -4 -24 -12 -23
-20 2 -7 -19 -31 -45 -54 -50 -44 -88 -53 -128 -32 -10 6 -19 7 -19 2 0 -5
-10 -14 -22 -21 -29 -15 -51 -58 -34 -65 6 -2 3 -5 -6 -5 -10 -1 -15 -7 -13
-13 3 -7 -11 -30 -31 -52 -27 -29 -31 -37 -16 -34 15 4 18 1 14 -14 -3 -13 0
-19 9 -18 27 4 49 0 49 -9 0 -13 -48 -19 -59 -8 -8 8 -11 6 -11 -5 0 -9 5 -18
12 -20 25 -9 -5 -28 -52 -34 -33 -4 -50 -11 -50 -20 0 -8 4 -14 10 -14 5 0 7
-7 3 -16 -5 -14 0 -15 35 -9 35 6 42 4 42 -9 0 -9 -12 -22 -27 -29 -16 -6 -30
-14 -33 -17 -16 -16 -50 -29 -55 -20 -3 6 -1 10 6 10 7 0 9 3 6 6 -9 9 -38
-16 -32 -27 3 -4 -4 -13 -15 -19 -17 -9 -19 -17 -14 -49 4 -24 2 -41 -5 -45
-6 -4 -11 -2 -11 5 0 7 -10 9 -25 7 -14 -3 -29 0 -33 7 -4 7 -21 19 -38 28
-17 9 -36 23 -43 31 -7 9 -18 13 -25 9 -6 -4 -5 1 3 10 8 10 12 18 10 20 -2 1
-13 7 -23 13 -31 17 -29 31 5 43 21 7 37 7 49 1 25 -13 30 -13 24 4 -8 22 17
31 32 12 7 -10 17 -15 23 -11 6 3 25 -4 42 -15 34 -25 32 -26 47 18 11 31 10
33 -10 26 -15 -4 -27 1 -44 22 -13 15 -27 24 -31 21 -3 -4 -12 2 -20 12 -8 12
-20 17 -33 14 -11 -3 -27 2 -36 12 -15 14 -15 18 -3 26 12 8 11 12 -5 24 -21
16 -16 18 22 15 12 -1 22 3 22 9 0 6 9 11 19 11 11 0 23 5 26 10 3 6 13 10 22
10 8 0 28 14 43 30 15 17 26 30 22 30 -3 0 3 9 12 19 20 22 12 46 -23 71 -28
19 -26 26 5 34 22 6 25 11 22 36 -4 25 -1 29 24 32 15 3 42 -2 59 -9 38 -16
42 -16 34 -3 -3 6 4 10 17 10 23 1 23 1 3 16 -11 8 -26 19 -34 23 -35 20 -11
80 32 81 15 0 16 -3 7 -20 -9 -17 -8 -20 7 -20 10 0 26 -9 36 -20 19 -22 33
-25 42 -10 3 6 16 10 28 10 19 1 14 8 -28 45 -27 24 -52 42 -54 39 -2 -2 -12
3 -22 12 -19 17 -39 12 -39 -10 0 -8 -10 -20 -23 -29 -19 -12 -26 -13 -41 -1
-11 7 -22 11 -27 9 -4 -3 -10 -1 -14 5 -3 5 -10 10 -15 10 -11 0 0 -32 14 -42
24 -16 -6 -19 -38 -4 -19 9 -38 16 -43 15 -19 -3 -33 2 -33 12 0 6 9 9 20 6
13 -3 20 0 20 9 0 23 -29 28 -50 9 -11 -10 -26 -15 -35 -11 -11 4 -28 -7 -49
-30 -20 -21 -38 -34 -45 -30 -7 4 -10 2 -9 -5 3 -12 -15 -17 -97 -31 -16 -2
-20 3 -21 27 -1 17 -2 44 -3 60 -1 21 -8 33 -23 40 -12 6 -23 15 -25 21 -6 17
50 69 112 104 30 17 78 51 106 75 29 24 72 54 98 66 25 11 54 28 64 37 15 13
20 14 26 3 6 -9 11 -10 15 -2 4 6 4 11 0 11 -4 0 0 6 10 13 17 12 17 14 0 27
-15 13 -18 13 -28 -4 -21 -36 -45 -55 -83 -65 -21 -6 -65 -33 -98 -62 -59 -50
-135 -96 -135 -82 0 4 -6 0 -12 -8 -32 -37 -88 -69 -112 -63 -22 5 -24 11 -25
69 0 46 4 66 15 76 13 11 17 10 25 -4 6 -9 17 -17 25 -17 13 0 13 2 -1 16 -9
9 -14 21 -12 28 2 6 55 37 118 69 l114 59 -64 -6 c-36 -3 -72 -12 -80 -20 -26
-22 -103 -56 -128 -56 -19 0 -23 5 -23 30 0 31 9 37 26 20 8 -8 15 -6 24 5 7
8 11 18 8 21 -3 2 -53 3 -112 2 l-106 -3 36 -55 c21 -30 38 -62 39 -70 0 -9 4
-21 9 -28 11 -18 -3 -34 -25 -27 -13 4 -19 2 -19 -9 0 -9 -4 -17 -10 -17 -5
-1 -13 -2 -18 -3 -4 0 -18 -11 -31 -22 -19 -19 -28 -21 -57 -12 -19 5 -39 6
-44 3 -6 -3 -10 -2 -10 3 0 5 -11 20 -24 33 -13 13 -26 41 -30 61 -4 22 -15
42 -26 48 -12 7 -20 7 -20 1 0 -5 6 -12 13 -14 7 -3 5 -6 -5 -6 -20 -1 -68 66
-71 97 -1 21 -3 21 -354 21 l-353 0 0 -739z m270 720 c0 -5 -4 -10 -10 -10 -5
0 -10 5 -10 10 0 6 5 10 10 10 6 0 10 -4 10 -10z m3830 -20 c-19 -16 -65 -53
-102 -82 -37 -29 -69 -57 -71 -63 -2 -5 0 -55 4 -110 20 -274 22 -315 11 -315
-6 0 -13 44 -17 108 -3 59 -10 163 -15 232 -8 124 -6 147 9 121 6 -10 34 6
107 63 100 76 138 100 74 46z m-1010 4 c0 -8 -5 -12 -10 -9 -6 4 -8 11 -5 16
9 14 15 11 15 -7z m-155 -5 c12 -19 -3 -22 -27 -5 l-22 16 21 0 c12 0 25 -5
28 -11z m49 -22 c-8 -21 -23 -13 -19 11 2 9 4 19 4 22 1 2 6 -1 11 -6 6 -6 8
-18 4 -27z m-2329 13 c3 -5 -1 -10 -9 -10 -9 0 -16 5 -16 10 0 6 4 10 9 10 6
0 13 -4 16 -10z m45 -11 c0 -5 -7 -9 -15 -9 -15 0 -20 12 -9 23 8 8 24 -1 24
-14z m3565 11 c3 -5 1 -10 -4 -10 -6 0 -11 5 -11 10 0 6 2 10 4 10 3 0 8 -4
11 -10z m-3971 -6 c12 -5 13 -9 3 -25 -15 -25 -31 -25 -17 0 7 14 6 21 -3 24
-17 8 -2 8 17 1z m2416 -8 c0 -20 -19 -31 -32 -18 -6 6 -7 15 -4 21 10 16 36
13 36 -3z m-2456 -23 c7 -17 -12 -16 -30 1 -12 13 -12 15 6 13 11 -1 22 -7 24
-14z m116 -3 c0 -5 -2 -10 -4 -10 -3 0 -8 5 -11 10 -3 6 -1 10 4 10 6 0 11 -4
11 -10z m2556 -4 c19 -20 18 -23 -11 -23 -24 0 -33 16 -18 30 9 10 13 9 29 -7z
m3047 -61 c-3 -8 -14 -15 -24 -15 -17 0 -99 -69 -99 -84 0 -10 28 -7 32 4 4
13 68 25 68 13 0 -15 -98 -43 -104 -29 -3 7 -8 6 -15 -5 -5 -8 -29 -21 -53
-28 -115 -35 -174 -56 -189 -68 -28 -23 -34 -14 -36 55 -3 88 23 139 82 158
22 8 51 20 65 28 14 8 47 14 73 14 26 0 53 5 60 10 7 6 26 12 42 14 36 4 107
-44 98 -67z m-5624 51 c9 -11 6 -13 -14 -13 -25 0 -31 7 -18 20 10 10 19 8 32
-7z m3749 -16 c-7 -11 -19 -20 -27 -20 -11 0 -10 5 5 19 25 26 37 26 22 1z
m61 -12 c-27 -10 -36 -3 -19 17 10 12 16 13 27 3 13 -10 11 -13 -8 -20z
m-1159 -4 c0 -17 -5 -17 -31 -3 -11 5 -17 14 -14 19 8 13 45 0 45 -16z m2030
12 c0 -2 -11 -6 -25 -8 -13 -3 -22 -1 -19 3 5 9 44 13 44 5z m-2070 -37 c0
-11 -27 -12 -34 0 -3 4 -3 11 0 14 8 8 34 -3 34 -14z m-265 -29 c-2 -34 1 -40
17 -40 15 0 18 -5 13 -20 -7 -23 -5 -23 27 -11 21 8 27 4 45 -23 12 -17 25
-39 29 -48 10 -28 -22 -22 -53 10 -49 51 -85 49 -45 -2 9 -13 23 -21 30 -18 6
2 12 -1 12 -7 0 -6 -6 -12 -12 -12 -7 -1 -17 -2 -23 -4 -5 -1 -16 -3 -22 -3
-7 -1 -13 -9 -13 -17 0 -11 -7 -14 -22 -10 -13 2 -45 7 -72 9 -58 6 -64 10
-42 35 10 11 25 16 40 14 13 -3 26 0 30 5 6 11 -5 16 -61 27 -18 4 -33 11 -33
17 0 6 -9 8 -20 5 -15 -4 -19 0 -18 16 1 12 -1 31 -5 42 -7 24 17 60 33 50 7
-4 10 -16 7 -26 -3 -11 -1 -19 4 -19 5 0 9 11 9 25 0 16 6 25 16 25 8 0 12 -4
9 -10 -3 -5 -1 -10 4 -10 6 0 11 4 11 9 0 8 58 26 96 30 7 1 10 -14 9 -39z
m62 -22 c-3 -7 -5 -2 -5 12 0 14 2 19 5 13 2 -7 2 -19 0 -25z m53 11 c0 -5 -4
-9 -10 -9 -5 0 -10 7 -10 16 0 8 5 12 10 9 6 -3 10 -10 10 -16z m125 12 c3 -5
1 -12 -5 -16 -5 -3 -10 1 -10 9 0 18 6 21 15 7z m365 5 c0 -3 -4 -8 -10 -11
-5 -3 -10 -1 -10 4 0 6 5 11 10 11 6 0 10 -2 10 -4z m-430 -16 c0 -5 -4 -10
-9 -10 -6 0 -13 5 -16 10 -3 6 1 10 9 10 9 0 16 -4 16 -10z m470 0 c0 -5 -4
-10 -10 -10 -5 0 -10 5 -10 10 0 6 5 10 10 10 6 0 10 -4 10 -10z m22 -12 c-7
-7 -12 -8 -12 -2 0 6 3 14 7 17 3 4 9 5 12 2 2 -3 -1 -11 -7 -17z m48 -14 c0
-2 -7 -4 -15 -4 -8 0 -15 4 -15 10 0 5 7 7 15 4 8 -4 15 -8 15 -10z m1300 12
c0 -3 -4 -8 -10 -11 -5 -3 -10 -1 -10 4 0 6 5 11 10 11 6 0 10 -2 10 -4z m360
-16 c0 -23 -10 -26 -29 -7 -10 10 -11 9 -6 -5 7 -17 4 -20 -27 -22 -7 -1 -19
-7 -27 -14 -8 -8 -24 -12 -37 -9 -14 2 -25 -2 -28 -9 -8 -21 -26 -17 -26 5 0
20 41 42 84 45 13 0 22 3 20 6 -5 4 50 27 69 29 4 1 7 -8 7 -19z m-3994 -27
c-10 -10 -19 5 -10 18 6 11 8 11 12 0 2 -7 1 -15 -2 -18z m1774 5 c0 -13 -23
-5 -28 10 -2 7 2 10 12 6 9 -3 16 -11 16 -16z m515 -8 c0 -7 -7 -15 -15 -17
-13 -4 -13 -3 0 6 13 10 13 12 0 22 -13 9 -13 10 0 6 8 -2 15 -10 15 -17z
m-2325 0 c0 -5 -4 -10 -9 -10 -6 0 -13 5 -16 10 -3 6 1 10 9 10 9 0 16 -4 16
-10z m2275 0 c3 -5 -1 -10 -9 -10 -9 0 -16 5 -16 10 0 6 4 10 9 10 6 0 13 -4
16 -10z m1431 -5 c16 -16 11 -35 -9 -35 -7 0 -6 4 3 10 8 5 11 10 5 11 -5 1
-14 2 -20 4 -5 1 -14 3 -18 3 -11 3 2 22 14 22 6 0 17 -7 25 -15z m-2266 -5
c0 -5 -4 -10 -10 -10 -5 0 -10 5 -10 10 0 6 5 10 10 10 6 0 10 -4 10 -10z
m464 -6 c3 -8 2 -12 -4 -9 -6 3 -10 10 -10 16 0 14 7 11 14 -7z m1534 -2 c2
-7 -4 -15 -13 -18 -20 -8 -27 -1 -19 20 7 18 25 17 32 -2z m832 -5 c0 -18 -9
-25 -47 -36 -27 -7 -79 -24 -116 -37 -38 -13 -73 -22 -78 -18 -5 3 -9 0 -9 -5
0 -6 -4 -11 -10 -11 -5 0 -10 10 -10 23 0 21 13 27 128 64 70 23 130 42 135
42 4 1 7 -9 7 -22z m-2450 3 c0 -5 -2 -10 -4 -10 -3 0 -8 5 -11 10 -3 6 -1 10
4 10 6 0 11 -4 11 -10z m1450 -22 c0 6 5 12 12 12 6 0 4 -7 -6 -18 -15 -18
-15 -20 10 -47 18 -20 22 -31 15 -38 -8 -8 -11 -6 -11 6 0 10 -8 17 -19 17
-14 0 -20 10 -25 38 -9 58 -7 70 9 42 8 -14 14 -19 15 -12z m-990 2 c0 -5 -2
-10 -4 -10 -3 0 -8 5 -11 10 -3 6 -1 10 4 10 6 0 11 -4 11 -10z m1682 -26
c-20 -15 -32 -9 -31 14 0 14 2 14 8 -2 7 -19 8 -18 14 5 6 19 9 21 16 10 7
-10 4 -19 -7 -27z m-2442 6 c0 -5 -4 -10 -10 -10 -5 0 -10 5 -10 10 0 6 5 10
10 10 6 0 10 -4 10 -10z m2390 -5 c0 -14 -29 -35 -49 -35 -17 0 -13 28 7 39
25 15 42 13 42 -4z m-2060 -9 c0 -8 2 -20 3 -28 2 -7 2 -10 0 -5 -3 4 -11 7
-19 7 -8 0 -14 9 -14 20 0 11 7 20 15 20 8 0 15 -6 15 -14z m-2070 -6 c0 -5
-4 -10 -10 -10 -5 0 -10 5 -10 10 0 6 5 10 10 10 6 0 10 -4 10 -10z m4475 -39
c-10 -9 -191 -69 -234 -77 -13 -3 -36 -11 -51 -19 -31 -16 -40 -11 -40 19 0
17 2 18 10 6 8 -12 10 -12 16 3 8 22 21 22 27 0 4 -15 5 -14 6 3 1 17 17 26
93 50 50 16 101 29 112 29 12 0 25 6 30 14 7 11 11 10 24 -3 10 -10 13 -19 7
-25z m708 33 c10 -10 -12 -44 -29 -44 -11 0 -13 -6 -9 -19 4 -14 -2 -23 -25
-34 -28 -15 -32 -14 -48 3 -21 23 -69 42 -77 31 -2 -5 5 -11 17 -14 25 -7 21
-16 -10 -22 -12 -2 -42 -13 -68 -24 -56 -25 -52 -25 -56 -3 -2 13 -9 8 -26
-19 -29 -47 -28 -58 2 -30 23 21 46 22 46 1 0 -10 -59 -32 -70 -25 -4 3 -19
-6 -33 -19 l-26 -24 -31 31 c-26 27 -30 38 -30 86 0 37 3 51 9 42 20 -32 201
16 201 53 0 23 29 27 47 7 16 -16 27 -17 92 -10 44 5 81 14 90 24 17 16 24 18
34 9z m-973 -29 c0 -14 -4 -25 -9 -25 -5 0 -16 -3 -25 -6 -12 -5 -16 0 -16 19
0 23 9 31 43 36 4 0 7 -10 7 -24z m-2172 -13 c2 -12 -1 -22 -7 -22 -6 0 -11 5
-11 10 0 6 -11 10 -25 10 -15 0 -25 6 -25 14 0 9 11 13 33 12 25 -1 33 -6 35
-24z m1612 18 c0 -5 -7 -10 -16 -10 -8 0 -12 5 -9 10 3 6 10 10 16 10 5 0 9
-4 9 -10z m500 -24 c0 -18 -8 -27 -29 -34 -16 -6 -32 -8 -35 -5 -10 11 -7 44
4 38 6 -3 10 -2 10 4 0 5 10 12 23 14 12 2 23 5 25 6 1 0 2 -10 2 -23z m-2443
-6 c-4 -16 0 -20 18 -20 13 0 35 -5 49 -11 20 -10 30 -9 50 5 14 9 33 16 42
16 9 0 23 8 30 18 7 9 14 12 14 5 0 -6 -5 -15 -10 -18 -6 -4 -8 -11 -5 -16 4
-5 -9 -9 -27 -9 -34 -1 -98 -43 -85 -56 4 -4 18 3 32 16 14 13 25 18 25 12 0
-7 -9 -20 -20 -29 -20 -18 -28 -39 -10 -28 6 3 7 -1 4 -10 -4 -9 -13 -14 -21
-11 -8 3 -19 6 -24 6 -5 0 -9 7 -9 15 0 13 -3 13 -20 3 -17 -11 -22 -10 -29 1
-5 7 -14 10 -21 6 -7 -4 -13 1 -16 12 -4 15 -12 19 -30 15 -25 -5 -31 -16 -14
-27 6 -4 8 -10 6 -14 -3 -4 15 -8 39 -9 56 0 105 -11 105 -22 0 -16 -22 -23
-30 -10 -6 9 -9 9 -15 0 -4 -6 -13 -9 -21 -6 -8 3 -14 1 -14 -4 0 -6 10 -10
23 -11 18 0 16 -3 -13 -17 -19 -9 -36 -20 -38 -24 -2 -5 -9 -8 -15 -8 -8 0 -7
4 1 12 7 7 12 16 12 20 0 20 -20 4 -60 -46 -24 -30 -55 -60 -68 -68 -26 -14
-26 -12 -5 -194 l5 -51 -35 -7 c-19 -4 -40 -13 -47 -21 -17 -21 -30 -19 -30 5
0 11 -11 30 -24 41 -14 12 -22 28 -19 35 10 27 -6 14 -21 -17 l-15 -31 26 7
c26 6 27 6 10 -13 -9 -10 -17 -23 -17 -28 0 -9 -28 -21 -89 -39 -16 -5 -21 -4
-17 4 10 16 -4 14 -23 -3 -19 -17 -58 -22 -89 -12 -27 9 -88 -9 -96 -29 -3 -8
-11 -15 -18 -15 -9 0 -9 3 2 10 13 9 13 11 0 19 -12 8 -10 14 12 34 15 14 25
26 23 28 -2 2 15 5 38 5 63 2 157 32 157 51 0 12 -3 13 -15 3 -18 -15 -85 -31
-85 -19 0 4 8 13 18 18 9 6 11 11 5 11 -7 0 -13 5 -13 12 0 6 3 8 7 5 3 -4 11
-1 17 6 10 12 36 22 104 42 19 6 22 3 22 -24 l0 -31 20 20 c24 24 26 34 5 26
-8 -3 -15 -1 -15 4 0 6 6 10 14 10 29 0 27 20 -3 26 -17 4 -31 11 -31 16 0 5
-9 4 -20 -2 -29 -16 -45 -2 -25 20 9 10 14 23 11 28 -3 6 5 9 19 8 28 -1 30
-6 13 -26 -11 -12 -10 -12 4 -1 10 7 24 11 33 8 8 -4 17 -2 20 3 4 6 14 10 23
10 16 -1 16 -1 0 -13 -11 -9 -14 -18 -8 -27 12 -19 20 -9 27 34 6 35 5 36 -19
27 -20 -8 -24 -6 -26 12 0 12 -6 23 -12 25 -16 6 -1 22 21 22 10 0 19 -7 19
-15 0 -8 4 -15 9 -15 5 0 9 19 9 43 -1 62 1 67 15 62 6 -3 32 13 56 35 24 22
47 40 52 40 5 0 9 5 9 11 0 6 -9 8 -20 4 -21 -7 -28 9 -9 20 6 4 8 13 5 20 -2
7 2 16 10 19 8 3 14 1 14 -4 0 -6 5 -10 10 -10 6 0 10 7 10 15 0 9 6 12 15 9
9 -4 19 3 27 20 8 19 14 23 19 14 6 -10 11 -9 21 3 12 16 32 26 52 28 4 1 6
-8 3 -19z m270 -15 c-8 -9 -16 -10 -24 -3 -18 14 -7 27 16 21 16 -4 17 -8 8
-18z m398 15 c3 -5 -1 -10 -9 -10 -9 0 -16 5 -16 10 0 6 4 10 9 10 6 0 13 -4
16 -10z m1271 -5 c15 -11 16 -16 6 -23 -9 -6 -11 -18 -6 -35 7 -29 -4 -35 -24
-15 -13 13 -17 88 -4 88 5 0 17 -7 28 -15z m-206 -5 c0 -5 -4 -10 -10 -10 -5
0 -10 5 -10 10 0 6 5 10 10 10 6 0 10 -4 10 -10z m261 -7 c0 -10 2 -28 5 -41
3 -18 0 -23 -13 -20 -14 3 -21 36 -14 73 3 13 21 3 22 -12z m-2821 -13 c0 -5
-2 -10 -4 -10 -3 0 -8 5 -11 10 -3 6 -1 10 4 10 6 0 11 -4 11 -10z m158 -1
c-2 -6 -8 -10 -13 -10 -5 0 -11 4 -13 10 -2 6 4 11 13 11 9 0 15 -5 13 -11z
m2702 1 c0 -5 -5 -10 -11 -10 -5 0 -7 5 -4 10 3 6 8 10 11 10 2 0 4 -4 4 -10z
m159 -4 c9 -11 6 -12 -15 -8 -19 3 -22 7 -12 13 16 11 14 11 27 -5z m56 -26
c4 -6 11 -8 16 -5 5 4 9 -5 9 -19 0 -14 4 -26 9 -26 5 0 7 -9 4 -21 -4 -12 0
-25 8 -31 11 -7 11 -11 2 -15 -14 -5 -16 -57 -7 -152 l7 -61 48 0 c38 0 51 -4
59 -19 13 -26 13 -57 -2 -98 -10 -28 -42 -53 -53 -41 -4 4 8 58 20 93 7 20 6
20 -9 1 -13 -16 -19 -17 -28 -8 -17 17 -28 15 -28 -7 0 -10 -7 -24 -15 -31
-12 -10 -15 -6 -21 29 -7 43 -27 70 -39 51 -3 -5 -14 -10 -23 -10 -14 1 -13 4
6 20 l23 19 -27 18 c-20 13 -29 14 -32 5 -8 -26 -35 -43 -57 -38 -26 7 -45
-11 -48 -43 -1 -18 -30 -38 -48 -34 -3 1 -10 -6 -16 -16 -9 -14 -8 -18 5 -18
10 0 23 4 30 10 19 15 14 -4 -5 -23 -15 -14 -21 -15 -38 -4 -28 17 -120 30
-111 15 4 -6 16 -11 26 -11 10 0 22 -4 25 -10 3 -5 1 -10 -5 -10 -6 0 -8 -10
-5 -23 5 -18 1 -26 -20 -35 -35 -16 -42 -15 -48 8 -6 23 -38 23 -65 -1 -10 -9
-27 -19 -37 -23 -19 -7 -19 -8 -2 -20 9 -7 17 -24 17 -37 0 -16 -3 -20 -8 -11
-5 7 -16 10 -25 6 -23 -8 -22 -25 1 -18 14 5 15 4 2 -5 -24 -17 -40 -13 -40
12 0 13 -5 28 -11 34 -7 7 -3 9 15 6 19 -4 26 -1 26 11 0 10 -9 16 -25 16 -34
0 -33 32 1 63 l26 25 -21 21 c-21 21 -21 21 -1 33 11 7 20 18 20 24 0 6 9 23
21 38 l20 26 -26 0 c-20 0 -25 4 -21 18 2 9 8 61 12 115 5 79 9 97 23 98 9 1
27 3 41 5 71 11 65 19 65 -94 0 -120 4 -125 79 -87 27 14 55 25 63 25 14 0 17
78 4 135 -6 29 -5 30 44 43 27 7 62 16 77 19 15 3 33 12 40 21 11 13 10 14
-10 8 -18 -6 -22 -4 -22 15 0 18 2 20 16 8 13 -10 17 -10 24 1 7 11 11 11 24
1 13 -11 16 -11 16 3 0 18 15 22 25 6z m185 -15 c0 -20 -5 -25 -25 -25 -30 0
-36 36 -7 43 31 8 32 7 32 -18z m355 15 c-28 -12 -37 -12 -30 0 3 6 16 10 28
9 21 0 21 -1 2 -9z m575 -15 c11 -13 10 -14 -4 -9 -9 3 -16 10 -16 15 0 13 6
11 20 -6z m-1234 -19 c1 -7 -4 -13 -11 -13 -7 0 -10 8 -7 19 5 20 15 17 18 -6z
m594 14 c-8 -5 -22 -9 -30 -9 -10 0 -8 3 5 9 27 12 43 12 25 0z m-4183 -27
c-2 -15 -9 -29 -15 -31 -13 -4 -16 17 -6 42 10 26 25 18 21 -11z m3831 9 c2
-7 -2 -10 -12 -6 -9 3 -16 11 -16 16 0 13 23 5 28 -10z m-3528 -1 c0 -6 -5
-13 -10 -16 -15 -9 -43 3 -35 15 8 13 45 13 45 1z m3096 -48 c-2 -50 -21 -69
-31 -31 -5 19 -2 68 4 85 1 1 7 0 15 -3 9 -3 13 -20 12 -51z m719 47 c-3 -5
-16 -10 -28 -9 -21 0 -21 1 -2 9 28 12 37 12 30 0z m-3697 -16 c-9 -9 -21 -13
-27 -10 -20 13 -11 26 16 26 25 0 26 -1 11 -16z m4025 -3 c-3 -10 0 -22 6 -25
6 -4 11 -19 11 -34 0 -20 -3 -23 -9 -12 -6 8 -7 18 -5 22 3 4 1 8 -4 8 -16 0
-23 31 -11 46 15 19 18 18 12 -5z m-1010 -11 c-7 -25 -23 -27 -18 -2 2 9 4 18
4 20 1 1 5 2 10 2 5 0 7 -9 4 -20z m-3193 0 c0 -5 -4 -10 -10 -10 -5 0 -10 5
-10 10 0 6 5 10 10 10 6 0 10 -4 10 -10z m317 -12 c-3 -8 -6 -5 -6 6 -1 11 2
17 5 13 3 -3 4 -12 1 -19z m3471 17 c-9 -10 -98 -33 -98 -26 0 4 17 12 38 18
42 12 68 15 60 8z m-3588 -15 c0 -5 9 -10 21 -10 12 0 19 -5 17 -12 -6 -18
-39 -22 -49 -6 -12 18 -11 38 1 38 6 0 10 -4 10 -10z m681 -33 c-17 -21 -61
-28 -61 -10 0 10 6 12 19 8 14 -4 21 0 26 16 5 15 10 18 18 10 7 -7 7 -14 -2
-24z m2709 12 c0 -5 -4 -9 -10 -9 -5 0 -10 7 -10 16 0 8 5 12 10 9 6 -3 10
-10 10 -16z m-3690 -4 c-7 -8 -22 -15 -33 -15 -25 0 -12 16 18 23 11 3 22 5
24 6 2 0 -2 -6 -9 -14z m234 -1 c3 -9 6 -25 6 -36 0 -16 -3 -18 -14 -9 -10 9
-16 8 -26 -4 -10 -13 -9 -15 9 -15 11 0 21 -5 21 -11 0 -7 -11 -9 -29 -6 -20
4 -31 2 -35 -8 -8 -22 -19 -18 -37 11 l-16 26 -21 -51 -21 -51 25 6 c13 3 24
2 24 -4 0 -5 -21 -13 -47 -17 -30 -4 -42 -10 -33 -15 7 -5 10 -15 6 -25 -5
-15 -2 -17 25 -11 27 5 30 4 19 -9 -10 -12 -10 -15 1 -16 8 0 5 -4 -6 -8 -17
-7 -16 -8 9 -15 18 -4 26 -12 23 -20 -4 -10 0 -12 14 -9 12 3 21 -1 25 -11 8
-22 -5 -35 -16 -16 -8 12 -10 12 -15 -2 -5 -13 -20 -17 -67 -17 -39 1 -64 -4
-69 -12 -14 -23 -23 0 -27 72 -2 43 1 75 8 83 7 10 8 16 0 21 -13 8 -13 72 0
80 6 3 10 -1 10 -9 0 -9 5 -16 10 -16 17 0 11 21 -12 40 -21 17 -21 20 -8 34
9 9 29 17 45 18 17 1 40 8 53 16 16 11 26 11 35 3 10 -8 19 -7 33 4 26 20 34
19 34 -5 0 -22 7 -25 30 -10 9 6 11 10 3 10 -7 0 -10 7 -7 15 8 20 30 19 38
-1z m4386 12 c0 -3 -25 -12 -55 -21 -31 -9 -53 -20 -50 -25 4 -6 1 -10 -4 -10
-32 0 10 46 49 53 37 6 60 8 60 3z m-3622 -71 c2 -28 -15 -42 -31 -26 -6 6
-19 11 -28 11 -10 0 -21 5 -25 11 -4 8 3 9 23 5 23 -5 32 -3 36 8 9 24 22 19
25 -9z m2733 15 c5 0 9 -4 9 -10 0 -5 -8 -7 -17 -4 -12 4 -9 -1 7 -15 16 -13
20 -21 11 -21 -11 0 -10 -4 4 -14 16 -11 29 -10 94 10 42 13 77 24 79 24 1 0
2 -7 2 -15 0 -9 -9 -15 -22 -15 -32 0 -43 -10 -56 -47 -9 -27 -8 -32 6 -35 9
-2 -9 -4 -40 -4 -62 -1 -69 5 -39 35 20 20 19 20 -20 19 -38 0 -65 -18 -41
-26 13 -4 17 -42 5 -42 -30 1 -59 71 -42 102 6 11 8 25 6 33 -7 17 14 37 31
30 8 -3 18 -5 23 -5z m358 6 c-2 -2 -17 -6 -34 -10 -22 -5 -26 -4 -15 4 14 9
59 15 49 6z m501 -16 c0 -5 -3 -10 -7 -10 -5 0 -19 -3 -33 -6 -24 -5 -24 -5
-6 10 22 18 46 21 46 6z m-5730 -12 c0 -7 -11 -14 -25 -14 -28 -2 -34 12 -7
19 29 8 32 7 32 -5z m99 -7 c9 -16 8 -18 -9 -14 -21 5 -25 15 -13 26 9 10 11
9 22 -12z m781 10 c0 -5 -9 -7 -20 -4 -11 3 -20 7 -20 9 0 2 9 4 20 4 11 0 20
-4 20 -9z m3577 -21 c-14 -23 -23 -25 -33 -8 -8 12 24 40 37 32 5 -3 3 -14 -4
-24z m-4417 4 c0 -8 -5 -12 -10 -9 -6 4 -8 11 -5 16 9 14 15 11 15 -7z m1430
6 c0 -5 -9 -14 -20 -20 -19 -10 -20 -10 -8 9 13 22 28 28 28 11z m2421 -66 c4
-38 10 -117 14 -175 l7 -107 31 -5 c18 -3 36 -1 41 4 18 17 46 10 46 -11 0
-14 7 -20 23 -21 14 -1 7 -5 -18 -11 -22 -6 -43 -15 -46 -20 -4 -6 -9 2 -13
16 -3 14 -13 26 -21 26 -20 0 -19 -16 1 -24 8 -3 12 -11 9 -17 -5 -6 -12 -4
-20 8 -12 17 -14 17 -32 1 -10 -9 -31 -20 -46 -24 -34 -8 -18 -23 18 -16 17 3
34 -6 61 -32 38 -37 74 -53 94 -41 5 3 13 -1 16 -9 3 -9 10 -14 15 -11 4 3 13
-4 19 -15 7 -13 7 -20 0 -20 -5 0 -10 6 -10 13 0 9 -10 12 -30 9 -16 -2 -30
-8 -30 -13 0 -5 -7 -9 -15 -9 -13 0 -19 11 -17 31 2 13 -49 33 -56 22 -12 -19
-48 -24 -61 -9 -10 12 -8 14 11 9 22 -5 22 -5 4 9 -10 8 -16 20 -12 26 4 8 2
10 -7 6 -8 -3 -18 -1 -22 5 -8 14 -55 14 -55 1 0 -6 -5 -9 -11 -8 -7 2 -15 -9
-19 -24 -10 -34 12 -57 35 -38 12 10 16 8 24 -13 5 -13 23 -31 40 -38 47 -21
37 -31 -23 -24 -71 9 -96 -4 -96 -50 0 -39 4 -42 27 -19 12 11 27 14 52 10 20
-3 48 -6 64 -6 34 0 36 -26 6 -59 -12 -13 -19 -30 -16 -41 3 -11 -3 -26 -14
-36 -10 -9 -19 -30 -19 -46 0 -15 -4 -28 -9 -28 -5 0 -11 -9 -14 -20 -3 -11
-11 -22 -19 -24 -7 -2 -34 -10 -59 -17 l-46 -13 49 -48 c27 -26 53 -48 58 -48
6 0 10 -5 10 -11 0 -5 -4 -7 -10 -4 -5 3 -10 1 -10 -5 0 -30 75 -17 125 22 14
11 25 16 24 11 -6 -35 23 -12 43 34 l12 28 4 -37 c2 -21 -6 -71 -18 -110 -12
-40 -25 -86 -28 -103 -10 -44 -86 -80 -169 -80 -34 0 -65 3 -69 8 -8 8 -9 125
-1 225 5 64 2 72 -17 48 -6 -8 -49 -31 -96 -51 -47 -21 -102 -50 -122 -66 -42
-33 -50 -36 -42 -14 4 8 2 15 -4 15 -6 0 -12 -5 -14 -10 -2 -6 -9 -1 -16 11
-10 15 -10 19 -1 14 8 -5 10 -4 5 4 -16 25 -75 -13 -76 -48 0 -11 4 -10 14 4
16 22 46 14 53 -15 3 -11 9 -17 14 -14 10 6 12 -56 3 -79 -4 -11 -15 -14 -40
-10 -22 4 -34 2 -34 -6 0 -6 4 -11 8 -11 5 0 19 -9 32 -20 17 -14 24 -33 26
-67 2 -27 0 -41 -3 -33 -3 8 -12 19 -19 23 -8 4 -14 13 -14 18 0 6 -6 17 -14
25 -13 12 -15 12 -19 -4 -2 -9 -7 6 -12 33 -4 28 -11 60 -16 72 -10 28 7 124
24 135 8 5 7 8 -5 8 -10 0 -18 7 -18 15 0 8 -5 15 -11 15 -5 0 -8 -4 -4 -9 3
-5 1 -12 -5 -16 -5 -3 -10 2 -10 13 0 10 -13 56 -28 103 -18 54 -26 93 -22
109 4 14 1 41 -8 62 -40 105 35 45 90 -71 l41 -86 14 75 c8 42 21 80 30 87 13
10 8 12 -27 10 l-42 -2 -14 50 c-7 28 -13 59 -14 69 0 18 1 18 18 3 12 -11 22
-13 32 -7 13 8 13 10 -1 10 -9 0 -19 9 -22 21 -3 12 -10 18 -17 14 -15 -9 -40
13 -40 36 0 10 11 26 25 35 21 14 24 21 19 54 -4 21 -1 47 6 60 6 12 9 25 5
28 -10 10 -44 -40 -38 -55 3 -7 0 -13 -6 -13 -16 0 -26 31 -13 39 7 4 8 12 1
21 -7 12 -10 11 -15 -7 -7 -25 -15 -28 -31 -12 -8 8 -8 0 0 -29 8 -30 7 -47
-4 -75 -8 -19 -18 -36 -24 -36 -5 -1 -13 27 -17 61 -4 35 -9 85 -13 111 l-6
48 51 21 c27 11 50 27 50 35 0 9 7 12 24 7 13 -3 34 0 46 6 12 6 24 9 27 7 2
-3 18 -78 34 -168 16 -90 34 -166 40 -170 7 -4 8 -12 4 -18 -9 -16 4 -111 16
-111 6 0 29 18 52 39 35 33 39 41 28 55 -8 9 -10 26 -6 45 5 22 1 35 -12 48
-24 24 -29 113 -8 153 8 16 36 43 61 61 43 29 51 31 105 25 57 -5 59 -5 47 14
-11 17 -10 25 2 47 19 33 39 41 37 14 -1 -12 -5 -21 -10 -21 -4 0 -6 -4 -3 -9
4 -5 0 -12 -6 -15 -9 -3 -7 -9 6 -20 26 -21 36 -20 36 4 0 14 9 21 38 25 69
12 67 10 67 77 -1 35 -4 70 -7 78 -4 8 -8 50 -11 93 -5 99 15 101 24 1z m2099
36 c10 16 20 -6 40 -85 7 -27 14 -57 17 -66 6 -21 -15 -26 -155 -35 l-113 -7
48 53 c26 29 67 73 90 97 23 25 46 55 50 67 7 19 8 18 11 -8 3 -21 6 -26 12
-16z m-4530 -18 c0 -13 -12 -22 -22 -16 -10 6 -1 24 13 24 5 0 9 -4 9 -8z
m3600 -6 c0 -2 -7 -7 -16 -10 -8 -3 -12 -2 -9 4 6 10 25 14 25 6z m140 -6 c13
-8 13 -10 -2 -10 -9 0 -20 5 -23 10 -8 13 5 13 25 0z m-186 -15 c-4 -8 -11
-12 -16 -9 -6 4 -5 10 3 15 19 12 19 11 13 -6z m-3724 -25 c0 -5 -5 -10 -11
-10 -5 0 -7 5 -4 10 3 6 8 10 11 10 2 0 4 -4 4 -10z m238 -10 c-15 -23 -28
-26 -28 -7 0 17 10 27 27 27 11 0 11 -4 1 -20z m-638 -4 c0 -3 -4 -8 -10 -11
-5 -3 -10 -1 -10 4 0 6 5 11 10 11 6 0 10 -2 10 -4z m18 -30 c-1 -14 -10 -27
-20 -29 -23 -6 -23 11 0 34 22 23 22 23 20 -5z m1074 -11 c6 -30 -14 -45 -62
-45 l-31 0 38 39 c21 21 41 37 44 35 4 -2 9 -15 11 -29z m3203 27 c6 -4 27
-43 48 -87 l37 -80 -47 -12 c-55 -14 -77 -37 -62 -64 5 -11 19 -19 30 -19 27
0 131 -30 146 -42 18 -14 -2 -61 -45 -105 -46 -48 -76 -61 -125 -55 -22 2 -49
0 -60 -6 -12 -5 -33 -15 -47 -21 -20 -9 -11 -10 44 -5 56 5 68 4 64 -7 -3 -8
-13 -16 -24 -18 -10 -2 -28 -10 -39 -17 -18 -13 -15 -14 32 -14 28 0 63 4 77
10 32 12 40 0 20 -29 -43 -61 -202 -64 -256 -4 -17 19 -26 45 -33 103 -2 19
-7 61 -11 92 -8 70 3 88 55 88 20 0 55 9 79 20 35 16 43 24 40 42 -2 19 -10
23 -48 26 -28 2 -48 -1 -55 -10 -49 -62 -57 -23 -14 71 36 78 61 107 114 132
43 20 64 23 80 11z m-265 -12 c-20 -13 -33 -13 -25 0 3 6 14 10 23 10 15 0 15
-2 2 -10z m605 0 c3 -5 23 -17 43 -27 53 -25 141 -76 119 -69 -10 3 -40 -5
-67 -19 l-49 -25 -41 69 c-22 38 -40 72 -40 75 0 10 28 7 35 -4z m-4885 -17
c0 -17 -15 -24 -34 -17 -26 10 -19 34 9 32 14 -1 25 -8 25 -15z m705 -3 c3 -5
1 -10 -4 -10 -6 0 -11 5 -11 10 0 6 2 10 4 10 3 0 8 -4 11 -10z m1641 -43 c-8
-23 -19 -55 -25 -71 -11 -26 -13 -27 -29 -13 -9 8 -29 19 -44 22 -16 4 -28 13
-28 20 0 14 120 96 131 89 5 -2 2 -24 -5 -47z m-2426 13 c0 -25 -19 -36 -33
-20 -9 10 -9 14 1 17 6 3 12 11 12 19 0 9 5 12 10 9 6 -3 10 -15 10 -25z
m4045 -13 c-8 -4 -15 -15 -15 -22 0 -8 -4 -15 -10 -15 -15 0 -12 16 6 34 8 9
13 16 9 16 -3 0 -3 5 1 11 4 8 9 7 15 -2 5 -9 3 -17 -6 -22z m-3690 2 c10 -15
2 -19 -24 -12 -17 4 -19 8 -9 14 18 12 26 11 33 -2z m435 7 c0 -11 -19 -15
-25 -6 -3 5 1 10 9 10 9 0 16 -2 16 -4z m-916 -22 c-19 -15 -18 -15 3 -11 13
3 25 2 28 -3 2 -4 23 -90 45 -191 22 -101 42 -190 45 -197 4 -10 10 -9 30 4
21 14 31 15 51 5 14 -6 36 -11 49 -11 38 0 29 -18 -15 -31 -31 -9 -39 -16 -35
-29 4 -13 -2 -19 -26 -24 -48 -9 -57 -8 -62 12 -3 9 -3 -2 -1 -25 3 -38 1 -43
-18 -43 -11 0 -38 -5 -60 -12 -33 -10 -41 -9 -48 3 -11 17 -90 336 -90 362 0
10 -6 20 -13 23 -9 3 -13 24 -12 67 1 51 4 62 18 63 13 2 13 1 2 -3 -8 -2 -15
-9 -15 -14 0 -12 4 -11 35 3 16 7 21 14 14 19 -7 4 1 10 19 14 17 3 36 13 43
21 6 8 16 14 22 14 6 0 2 -7 -9 -16z m2107 -8 c-9 -11 -6 -16 20 -25 17 -6 35
-8 41 -5 5 3 15 1 23 -6 9 -7 15 -8 20 0 3 5 -2 10 -12 10 -16 0 -16 1 -1 16
15 15 18 15 38 -4 l22 -20 -21 -14 c-26 -16 -27 -34 -2 -48 25 -13 36 2 21 30
-11 21 -6 24 25 10 11 -5 15 -9 8 -9 -21 -2 -12 -58 11 -70 l21 -11 -21 5
c-17 4 -22 1 -20 -12 0 -10 -7 -19 -18 -21 -11 -2 -16 0 -12 7 4 6 0 11 -9 11
-8 0 -18 7 -22 16 -3 8 -11 13 -19 10 -7 -3 -18 2 -24 10 -9 10 -9 14 -1 14 6
0 11 4 11 9 0 5 -9 7 -20 4 -11 -3 -17 -9 -14 -14 3 -5 -17 -9 -44 -9 -27 0
-65 -7 -83 -15 -38 -16 -25 -20 17 -5 27 11 97 3 89 -9 -2 -4 -30 -13 -62 -20
-32 -7 -62 -17 -68 -21 -5 -4 -29 -10 -53 -14 -42 -6 -42 -6 -36 21 17 73 76
160 122 179 20 8 30 9 26 3 -4 -8 1 -9 17 -4 13 4 26 12 28 17 1 5 6 7 8 4 3
-3 1 -12 -6 -20z m-1684 7 c-4 -3 -2 -12 4 -20 9 -10 8 -13 -3 -13 -22 0 -29
12 -17 27 6 7 14 13 17 13 3 0 2 -3 -1 -7z m973 -3 c0 -5 -9 -10 -21 -10 -11
0 -17 5 -14 10 3 6 13 10 21 10 8 0 14 -4 14 -10z m-463 -27 c2 -6 -6 -13 -17
-16 -12 -3 -24 -15 -27 -26 -6 -23 -23 -29 -23 -8 0 6 7 20 15 30 7 11 11 25
8 33 -4 11 0 12 18 6 13 -5 25 -14 26 -19z m3197 11 c3 -9 2 -23 -3 -31 -6
-12 -9 -8 -13 16 -5 32 5 42 16 15z m-3644 -9 c0 -12 -19 -12 -23 0 -4 9 -1
12 9 8 7 -3 14 -7 14 -8z m4875 -12 c-4 -10 -12 -30 -17 -45 -5 -16 -15 -28
-21 -28 -16 0 -57 -41 -57 -58 0 -10 9 -6 25 12 21 23 26 25 31 11 4 -9 1 -41
-6 -72 l-12 -55 -25 24 c-14 12 -33 39 -43 58 l-18 35 -22 -50 c-19 -43 -20
-53 -8 -72 7 -11 26 -42 41 -67 l29 -46 -22 -56 c-11 -32 -18 -64 -15 -73 4
-10 -3 -7 -19 8 -35 33 -58 87 -52 119 11 55 15 208 7 246 -12 48 -5 65 27 77
20 8 29 6 47 -11 26 -24 43 -26 41 -3 0 10 15 26 39 40 48 27 59 29 50 6z
m123 3 c2 -3 -16 -89 -41 -193 -37 -152 -87 -387 -87 -409 0 -10 -29 -3 -40
11 -7 9 -19 14 -26 11 -17 -7 -68 65 -53 75 14 8 39 58 39 78 1 12 5 11 21 -8
11 -13 22 -22 24 -19 4 4 7 83 6 148 -1 14 2 66 7 115 7 88 24 133 69 186 12
15 68 18 81 5z m-5048 -15 c0 -5 -6 -12 -12 -15 -7 -3 -1 -3 15 0 16 4 27 2
27 -5 0 -6 -5 -11 -12 -11 -6 0 -20 -7 -30 -16 -15 -14 -20 -15 -34 -3 -10 8
-19 13 -21 12 -3 -3 -3 -1 -2 20 0 10 2 10 6 0 2 -7 9 -13 15 -13 6 0 8 6 5
14 -5 13 5 20 36 25 4 0 7 -3 7 -8z m410 -11 c0 -5 -5 -10 -11 -10 -5 0 -7 5
-4 10 3 6 8 10 11 10 2 0 4 -4 4 -10z m154 2 c2 -4 0 -14 -5 -22 -8 -13 -10
-13 -19 0 -5 8 -10 18 -10 23 0 10 28 9 34 -1z m1470 -39 c16 -18 26 -36 23
-40 -3 -3 -36 0 -72 7 -45 9 -69 18 -76 31 -5 11 -17 19 -26 19 -25 0 -8 12
28 19 56 11 92 1 123 -36z m140 -19 c4 -37 5 -69 2 -71 -8 -8 -66 40 -72 60
-4 13 3 28 22 48 15 16 31 29 34 29 4 0 10 -30 14 -66z m-1678 41 c-21 -16
-32 -13 -21 4 3 6 14 11 23 11 15 -1 15 -2 -2 -15z m-726 -5 c0 -5 -5 -10 -11
-10 -5 0 -7 5 -4 10 3 6 8 10 11 10 2 0 4 -4 4 -10z m3510 0 c0 -5 -4 -10 -10
-10 -5 0 -10 5 -10 10 0 6 5 10 10 10 6 0 10 -4 10 -10z m290 -6 c0 -8 -4 -12
-10 -9 -5 3 -10 10 -10 16 0 5 5 9 10 9 6 0 10 -7 10 -16z m-2678 -13 c4 -3 3
-13 -2 -21 -8 -12 -12 -11 -30 7 -11 12 -20 25 -20 28 0 7 41 -4 52 -14z m132
13 c18 -7 12 -24 -10 -24 -8 0 -14 7 -14 15 0 17 2 18 24 9z m4201 -19 c0 -13
-8 -21 -24 -23 -28 -4 -46 11 -37 33 9 25 61 16 61 -10z m-4905 -5 c0 -5 -7
-10 -15 -10 -8 0 -15 5 -15 10 0 6 7 10 15 10 8 0 15 -4 15 -10z m165 -10 c3
-5 2 -10 -4 -10 -5 0 -13 5 -16 10 -3 6 -2 10 4 10 5 0 13 -4 16 -10z m3433
-23 c2 -15 -1 -27 -7 -27 -6 0 -11 6 -11 14 0 8 -3 22 -7 32 -4 12 -2 15 8 12
8 -2 15 -17 17 -31z m-2993 13 c-3 -5 -11 -10 -16 -10 -6 0 -7 5 -4 10 3 6 11
10 16 10 6 0 7 -4 4 -10z m491 1 c-3 -4 -19 -11 -34 -14 -29 -6 -29 -7 -31
-75 l-2 -69 48 -25 c61 -31 62 -51 3 -59 -25 -4 -64 -10 -87 -13 -28 -5 -43
-3 -43 4 0 20 29 67 44 73 11 5 16 26 18 84 l3 78 35 12 c43 15 53 16 46 4z
m-1325 -14 c-1 -4 -1 -18 -1 -32 0 -14 -4 -25 -9 -25 -14 0 -22 31 -11 45 5 6
6 15 2 20 -4 4 -1 6 6 4 8 -3 13 -8 13 -12z m257 -38 c-7 -5 -22 -9 -33 -9
-18 1 -16 4 10 27 27 23 30 24 33 8 2 -10 -2 -21 -10 -26z m-448 27 c0 -2 -7
-9 -15 -16 -13 -11 -14 -10 -9 4 5 14 24 23 24 12z m3650 -16 c0 -14 -24 -23
-47 -17 -15 3 -14 6 7 15 32 14 40 14 40 2z m-2535 -20 c3 -5 1 -10 -4 -10 -6
0 -11 5 -11 10 0 6 2 10 4 10 3 0 8 -4 11 -10z m2925 -18 c0 -21 -7 -32 -25
-40 -22 -10 -24 -9 -22 10 2 23 26 58 39 58 5 0 8 -13 8 -28z m-3126 9 c7 -10
-18 -34 -27 -25 -7 8 3 34 13 34 5 0 11 -4 14 -9z m72 -30 c-10 -16 -23 -14
-30 5 -9 25 4 38 21 21 9 -8 12 -20 9 -26z m83 18 c-16 -10 -23 -4 -14 10 3 6
11 8 17 5 6 -4 5 -9 -3 -15z m2886 -16 c9 -43 20 -57 46 -63 22 -5 25 -14 37
-105 14 -105 13 -118 -28 -210 -10 -22 -25 -57 -33 -77 -9 -21 -21 -38 -26
-38 -6 0 -8 -6 -5 -14 4 -10 -16 -32 -56 -62 -70 -55 -112 -120 -136 -215 -22
-84 -21 -108 5 -161 25 -52 26 -66 6 -92 -14 -18 -15 -18 -25 8 -5 15 -10 38
-10 52 0 13 -9 66 -19 117 -11 50 -22 108 -25 128 -4 23 -16 43 -36 57 -16 13
-39 41 -51 63 -20 40 -22 41 -57 35 -53 -9 -166 19 -249 62 -71 36 -89 52 -58
52 8 0 27 26 42 58 21 43 33 57 51 58 12 1 22 -5 22 -12 0 -24 15 -15 35 22
10 19 32 46 47 59 18 15 28 33 28 50 0 24 -1 25 -16 11 -21 -22 -25 -20 -18 9
4 18 2 25 -8 25 -10 0 -13 10 -10 36 4 32 6 34 21 20 10 -9 23 -16 29 -16 7 0
12 -4 12 -10 0 -5 16 -2 35 7 34 16 36 16 55 -3 20 -20 20 -20 -5 -54 -29 -40
-31 -47 -7 -29 43 33 62 54 62 69 0 9 8 24 18 33 24 22 288 157 306 157 9 0
18 -12 21 -27z m-4095 13 c0 -2 -7 -9 -15 -16 -13 -11 -14 -10 -9 4 5 14 24
23 24 12z m565 -6 c-3 -5 -10 -10 -16 -10 -5 0 -9 5 -9 10 0 6 7 10 16 10 8 0
12 -4 9 -10z m435 0 c0 -5 -4 -10 -10 -10 -5 0 -10 5 -10 10 0 6 5 10 10 10 6
0 10 -4 10 -10z m905 -10 c3 -5 1 -10 -4 -10 -6 0 -11 5 -11 10 0 6 2 10 4 10
3 0 8 -4 11 -10z m-842 -15 c-3 -9 -8 -14 -10 -11 -3 3 -2 9 2 15 9 16 15 13
8 -4z m-305 -30 c61 -28 68 -38 13 -19 -22 7 -76 16 -120 20 -79 7 -103 18
-58 27 39 9 110 -4 165 -28z m1007 25 c-3 -5 -13 -10 -21 -10 -8 0 -12 5 -9
10 3 6 13 10 21 10 8 0 12 -4 9 -10z m78 -40 c4 0 5 5 2 10 -3 6 1 10 9 10 22
0 20 -12 -5 -33 -16 -15 -18 -21 -9 -33 10 -12 8 -14 -13 -14 -35 0 -79 -18
-72 -29 3 -5 19 -12 35 -16 17 -4 30 -11 30 -15 0 -11 -40 -34 -40 -23 -1 4
-10 -3 -20 -16 l-20 -23 1 33 c1 19 -1 50 -5 69 -5 22 -4 30 2 22 12 -17 37
11 28 33 -3 8 -2 15 3 15 5 0 14 14 21 31 l13 31 16 -26 c9 -14 19 -26 24 -26z
m-840 22 c-1 -5 7 -8 17 -5 11 3 20 1 20 -3 0 -11 -101 -56 -109 -49 -3 3 -1
9 5 13 5 4 18 20 27 35 17 26 45 33 40 9z m2574 -8 c-3 -3 -12 -4 -19 -1 -8 3
-5 6 6 6 11 1 17 -2 13 -5z m-2872 -24 c3 -5 2 -10 -4 -10 -5 0 -13 5 -16 10
-3 6 -2 10 4 10 5 0 13 -4 16 -10z m1040 -20 c3 -5 1 -10 -4 -10 -6 0 -11 5
-11 10 0 6 2 10 4 10 3 0 8 -4 11 -10z m147 -7 c18 -16 26 -69 9 -59 -14 9
-21 -20 -8 -33 13 -13 -6 -14 -37 -2 -18 7 -18 8 -1 25 15 15 16 23 7 52 -12
38 -1 45 30 17z m1644 -10 c-10 -10 -19 5 -10 18 6 11 8 11 12 0 2 -7 1 -15
-2 -18z m-1603 -8 c-3 -9 -8 -14 -10 -11 -3 3 -2 9 2 15 9 16 15 13 8 -4z
m-2523 -65 c0 -5 -4 -10 -10 -10 -5 0 -10 5 -10 10 0 6 5 10 10 10 6 0 10 -4
10 -10z m2170 1 c0 -6 21 -11 48 -13 44 -3 45 -4 22 -15 -14 -6 -32 -7 -40 -3
-20 10 -63 -7 -54 -21 3 -6 0 -22 -7 -35 -11 -21 -10 -27 4 -41 13 -13 19 -14
31 -4 8 7 32 11 53 9 31 -2 39 -7 41 -25 3 -21 -1 -23 -37 -23 -32 0 -41 -4
-41 -17 0 -24 10 -36 40 -50 24 -11 24 -12 3 -12 -29 -1 -39 -19 -12 -23 21
-3 21 -3 2 -20 -17 -16 -22 -16 -39 -3 -17 13 -17 16 -4 26 13 9 12 10 -2 5
-10 -3 -18 -1 -18 4 0 5 -9 12 -20 15 -11 3 -20 12 -20 19 0 15 -33 56 -46 56
-4 0 -19 -10 -32 -22 -14 -13 -22 -17 -17 -9 6 11 2 13 -18 9 -14 -3 -32 -1
-39 3 -10 7 -10 9 0 9 6 0 12 5 12 11 0 6 7 17 15 25 8 9 15 20 15 25 0 14
-38 11 -43 -3 -3 -10 -7 -10 -18 -2 -14 11 -59 25 -59 19 0 -2 12 -27 26 -56
29 -57 25 -81 -16 -87 -14 -2 -20 0 -16 7 8 13 4 14 -18 5 -36 -14 -15 -32 44
-39 41 -5 59 -11 55 -19 -3 -6 -8 -18 -11 -26 -7 -20 -82 -60 -114 -61 l-25
-1 25 -8 c17 -5 19 -8 8 -9 -10 -1 -18 -6 -18 -11 0 -12 48 -3 68 13 10 8 16
7 23 -4 10 -17 -25 -48 -55 -49 -11 0 -28 -7 -38 -17 -17 -15 -19 -15 -37 1
-48 43 -44 271 6 328 21 24 2 29 -27 6 -18 -15 -21 -21 -11 -27 11 -7 11 -10
0 -17 -8 -5 -21 -9 -29 -9 -9 0 -14 -8 -12 -20 4 -35 -10 -135 -18 -130 -5 3
-21 0 -36 -5 -34 -13 -45 -3 -19 17 16 13 17 15 3 10 -10 -4 -18 -2 -18 2 0 5
5 11 12 13 7 3 13 16 13 29 1 14 5 31 9 37 4 7 2 20 -5 28 -10 13 -10 17 1 24
18 11 9 21 -19 23 -11 1 -21 5 -21 9 0 8 14 11 41 9 9 -1 46 16 81 39 97 60
233 95 258 64 7 -7 9 -18 5 -23 -3 -7 0 -8 9 -5 9 3 16 10 16 15 0 21 26 6 40
-22 17 -34 37 -36 31 -4 -4 28 -10 32 -21 15 -6 -8 -10 -10 -10 -5 0 15 34 42
47 38 7 -3 18 5 25 16 13 22 28 28 28 12z m3045 -10 c-3 -6 -11 -11 -17 -11
-6 0 -6 6 2 15 14 17 26 13 15 -4z m-1418 3 c-3 -3 -12 -4 -19 -1 -8 3 -5 6 6
6 11 1 17 -2 13 -5z m-2535 -34 c28 -12 -77 -4 -132 11 -27 7 -18 8 37 4 39
-3 82 -9 95 -15z m1683 10 c-3 -5 -2 -10 4 -10 6 0 7 -7 4 -17 -5 -11 -3 -14
6 -8 7 4 16 4 20 -1 3 -5 30 -20 59 -33 45 -21 52 -28 52 -54 0 -20 -6 -30
-20 -34 -11 -3 -20 -9 -20 -13 0 -5 -10 -12 -22 -16 -21 -6 -21 -7 -3 -20 16
-12 21 -12 35 1 26 24 37 18 43 -22 3 -21 9 -53 13 -72 l7 -35 -49 41 c-27 22
-70 48 -96 58 -47 17 -48 19 -48 60 0 23 -5 57 -11 74 -13 36 3 111 22 111 6
0 7 -4 4 -10z m-535 -34 c0 -2 -11 -6 -25 -8 -14 -3 -25 -1 -25 3 0 5 11 9 25
9 14 0 25 -2 25 -4z m-1329 -37 c20 -5 94 -18 164 -29 70 -10 130 -21 132 -24
3 -2 7 -23 10 -47 l6 -42 -94 7 c-99 8 -190 20 -275 37 l-52 10 5 42 c8 75 1
72 104 46z m-491 -33 c0 -16 -7 -27 -20 -31 -22 -7 -50 9 -50 28 0 7 4 7 12
-1 17 -17 26 -15 33 8 9 28 25 25 25 -4z m4201 -86 c-21 -61 -37 -79 -60 -73
-17 4 -17 8 8 45 14 22 26 45 27 51 3 34 5 38 14 32 6 -3 10 0 10 7 0 10 2 10
9 -1 5 -8 2 -32 -8 -61z m-4299 47 c-27 -8 -32 -15 -29 -31 14 -59 17 -90 9
-76 -5 8 -12 32 -16 53 -6 31 -11 37 -34 38 -20 1 -13 5 23 14 60 16 93 17 47
2z m954 -42 c-3 -8 -12 -12 -20 -9 -12 5 -13 10 -4 30 10 21 13 23 21 9 5 -9
6 -23 3 -30z m3591 17 c10 -6 32 -15 48 -22 30 -12 30 -12 7 -21 -13 -5 -20
-14 -17 -19 4 -6 1 -18 -6 -26 -10 -12 -9 -16 9 -21 12 -3 22 -9 22 -14 0 -19
56 -8 75 14 l20 22 3 -23 c3 -22 5 -23 22 -7 18 17 19 16 13 -20 -6 -37 -5
-38 18 -30 13 4 41 10 62 12 21 3 41 11 44 19 7 19 39 18 47 -2 5 -12 17 -15
56 -12 28 1 50 0 50 -3 0 -17 -89 -135 -124 -165 -72 -62 -195 -94 -361 -94
-67 0 -101 5 -132 19 -60 28 -66 46 -52 142 12 82 23 99 67 99 21 0 52 39 52
64 0 8 8 20 18 25 9 6 11 11 5 11 -8 0 -13 15 -13 40 0 38 1 39 24 30 14 -5
33 -13 43 -18z m503 7 c0 -5 -4 -9 -10 -9 -5 0 -10 7 -10 16 0 8 5 12 10 9 6
-3 10 -10 10 -16z m-4025 -9 c3 -5 -1 -10 -9 -10 -9 0 -16 5 -16 10 0 6 4 10
9 10 6 0 13 -4 16 -10z m-639 -85 c70 -20 104 -40 104 -61 0 -8 -4 -13 -9 -10
-13 8 -37 -24 -54 -74 -15 -43 -16 -43 -17 -13 0 26 -3 30 -20 26 -11 -3 -31
-19 -44 -36 -24 -30 -24 -30 -35 -8 -7 12 -11 29 -9 39 1 9 -1 23 -6 30 -5 9
-1 19 10 28 18 14 17 15 -9 9 -32 -7 -47 17 -29 46 18 28 15 44 -3 29 -24 -20
-28 -6 -10 36 l16 38 28 -31 c19 -21 48 -37 87 -48z m1220 50 c-1 -29 -3 -30
-22 -11 -20 20 -18 36 5 36 14 0 19 -7 17 -25z m424 -86 c-12 -21 -31 -22 -37
-2 -4 10 11 18 40 22 4 0 3 -8 -3 -20z m-1113 -71 c-10 -56 -27 -79 -27 -38 0
11 -4 20 -10 20 -5 0 -10 4 -10 9 0 10 51 74 55 69 2 -2 -2 -29 -8 -60z m1770
15 c-3 -10 -5 -4 -5 12 0 17 2 24 5 18 2 -7 2 -21 0 -30z m-1487 17 c-8 -5
-19 -10 -25 -10 -5 0 -3 5 5 10 8 5 20 10 25 10 6 0 3 -5 -5 -10z m-1165 -20
c-32 -21 -44 -20 -24 4 8 8 23 15 34 16 17 0 15 -3 -10 -20z m72 4 c-3 -3 -12
-4 -19 -1 -8 3 -5 6 6 6 11 1 17 -2 13 -5z m1641 -12 c6 -18 -15 -14 -22 4 -4
10 -1 14 6 12 6 -2 14 -10 16 -16z m1756 -97 c-6 -67 -11 -80 -37 -106 -35
-35 -40 -34 -27 7 48 142 63 184 67 180 2 -2 1 -38 -3 -81z m-3727 69 c-3 -3
-12 -4 -19 -1 -8 3 -5 6 6 6 11 1 17 -2 13 -5z m269 -39 c1 -8 -3 -15 -9 -15
-6 0 -19 -7 -29 -17 -27 -24 -23 4 4 32 24 25 30 24 34 0z m71 0 c-11 -7 -25
-11 -33 -8 -25 10 -15 23 19 23 30 -1 31 -2 14 -15z m2081 -124 c-26 -4 -61
-17 -77 -29 -36 -26 -49 -29 -30 -5 21 25 69 42 114 41 l40 -1 -47 -6z m103
-28 l24 -27 -35 24 c-19 13 -37 25 -39 27 -2 2 2 3 11 3 8 0 25 -12 39 -27z
m-71 13 c0 -11 -52 -101 -58 -101 -4 0 -6 -10 -4 -22 2 -18 -2 -23 -20 -23
-19 0 -20 2 -8 10 13 9 13 11 0 20 -11 7 -18 5 -26 -5 -17 -23 -24 -18 -24 18
0 41 23 75 64 93 30 13 76 19 76 10z m3350 -16 c0 -5 -5 -10 -11 -10 -5 0 -7
5 -4 10 3 6 8 10 11 10 2 0 4 -4 4 -10z m75 -120 c17 -8 16 -9 -7 -7 -15 2
-30 6 -34 10 -10 10 17 8 41 -3z m-4005 -20 c12 -8 12 -10 1 -10 -11 0 -9 -6
5 -22 19 -23 19 -23 -2 -5 -24 20 -35 22 -31 6 1 -6 -4 -14 -10 -16 -21 -8
-15 15 8 30 15 11 17 16 7 20 -7 3 -8 6 -3 6 6 0 17 -4 25 -9z m1175 -20 c3
-5 1 -10 -4 -10 -6 0 -11 5 -11 10 0 6 2 10 4 10 3 0 8 -4 11 -10z m-707 -77
l2 -58 -67 -32 c-71 -33 -83 -33 -83 -3 0 10 -7 20 -15 24 -8 3 -15 12 -15 20
0 8 -5 16 -11 18 -18 6 5 72 30 84 12 6 52 10 89 8 l67 -3 3 -58z"/>
<path d="M2491 4351 l-24 -6 26 -12 c20 -9 28 -9 36 1 15 17 -4 25 -38 17z"/>
<path d="M2411 4314 c0 -11 3 -14 6 -6 3 7 2 16 -1 19 -3 4 -6 -2 -5 -13z"/>
<path d="M2349 4123 c-13 -16 -12 -17 4 -4 9 7 17 15 17 17 0 8 -8 3 -21 -13z"/>
<path d="M2108 3883 c6 -2 18 -2 25 0 6 3 1 5 -13 5 -14 0 -19 -2 -12 -5z"/>
<path d="M2030 3780 c0 -5 5 -10 10 -10 6 0 10 5 10 10 0 6 -4 10 -10 10 -5 0
-10 -4 -10 -10z"/>
<path d="M4757 4316 c-4 -10 -1 -13 8 -9 8 3 12 9 9 14 -7 12 -11 11 -17 -5z"/>
<path d="M4718 4192 c-16 -9 -28 -22 -28 -29 0 -7 -4 -13 -10 -13 -14 0 -13
13 2 28 6 6 8 15 4 19 -4 5 -13 1 -20 -9 -9 -12 -16 -14 -30 -6 -21 12 -34 2
-18 -14 17 -17 15 -43 -5 -59 -14 -12 -11 -15 33 -19 65 -7 74 -3 74 33 0 17
7 38 16 48 24 27 13 40 -18 21z"/>
<path d="M4342 4174 c-7 -12 -11 -13 -17 -5 -9 16 -45 -50 -45 -84 0 -23 2
-24 20 -15 11 6 20 19 20 29 0 11 6 21 14 24 7 3 16 19 18 36 5 35 3 38 -10
15z"/>
<path d="M4330 4091 c0 -5 5 -13 10 -16 6 -3 10 -2 10 4 0 5 -4 13 -10 16 -5
3 -10 2 -10 -4z"/>
<path d="M4338 3960 c5 -32 16 -39 26 -15 3 8 1 15 -4 15 -6 0 -10 7 -10 15 0
8 -4 15 -8 15 -5 0 -7 -13 -4 -30z"/>
<path d="M4370 3979 c0 -5 5 -7 10 -4 6 3 10 8 10 11 0 2 -4 4 -10 4 -5 0 -10
-5 -10 -11z"/>
<path d="M4299 3883 c-24 -38 -24 -38 -5 -57 19 -19 19 -19 38 4 23 28 23 37
1 43 -10 3 -3 5 15 6 29 1 32 3 22 21 -16 31 -44 24 -71 -17z"/>
<path d="M1218 4093 c12 -2 30 -2 40 0 9 3 -1 5 -23 4 -22 0 -30 -2 -17 -4z"/>
<path d="M4895 4140 c-3 -5 -1 -10 4 -10 6 0 11 5 11 10 0 6 -2 10 -4 10 -3 0
-8 -4 -11 -10z"/>
<path d="M3750 3760 c-8 -5 -10 -10 -5 -10 6 0 17 5 25 10 8 5 11 10 5 10 -5
0 -17 -5 -25 -10z"/>
<path d="M3820 3729 c0 -5 -4 -7 -10 -4 -5 3 -10 -3 -10 -14 0 -12 -6 -21 -12
-22 -7 0 -4 -4 7 -9 19 -8 19 -8 -4 -17 -19 -8 -21 -11 -8 -16 21 -8 40 17 32
43 -4 11 -3 20 2 19 15 -2 53 13 53 22 0 5 -11 9 -25 9 -14 0 -25 -5 -25 -11z"/>
<path d="M3733 3675 c-15 -13 -23 -25 -17 -25 6 0 21 11 34 25 30 32 19 32
-17 0z"/>
<path d="M3980 3670 c0 -5 5 -10 10 -10 6 0 10 5 10 10 0 6 -4 10 -10 10 -5 0
-10 -4 -10 -10z"/>
<path d="M3626 3634 c-9 -8 -16 -19 -16 -24 0 -11 45 -21 65 -14 15 6 16 8 2
16 -9 5 -14 15 -11 23 8 20 -20 19 -40 -1z"/>
<path d="M3760 3610 c0 -5 5 -10 10 -10 6 0 10 5 10 10 0 6 -4 10 -10 10 -5 0
-10 -4 -10 -10z"/>
<path d="M3696 3583 c-12 -12 -6 -22 11 -16 11 4 14 3 9 -5 -4 -7 -16 -12 -27
-12 -13 0 -18 4 -13 12 5 8 2 9 -10 5 -10 -4 -22 -7 -28 -7 -6 0 -7 -7 -2 -17
4 -10 8 -42 10 -72 1 -33 9 -60 18 -70 15 -14 16 -13 16 11 0 33 23 57 61 65
38 7 44 29 13 49 -22 15 -23 18 -9 34 8 9 15 18 15 21 0 7 -57 9 -64 2z m24
-77 c0 -2 -7 -6 -15 -10 -8 -3 -15 -1 -15 4 0 6 7 10 15 10 8 0 15 -2 15 -4z"/>
<path d="M3768 3403 c-25 -6 -22 -18 8 -38 24 -16 27 -16 45 1 11 10 16 21 12
25 -12 11 -46 17 -65 12z"/>
<path d="M3670 3346 c0 -8 5 -18 10 -21 6 -3 10 1 10 9 0 8 -4 18 -10 21 -5 3
-10 -1 -10 -9z"/>
<path d="M3762 3307 c-58 -11 -45 -21 24 -18 34 2 54 -1 50 -7 -3 -5 -17 -9
-32 -9 -14 0 -31 -6 -37 -12 -8 -8 5 -11 49 -11 54 0 62 3 73 24 8 13 11 29 7
34 -7 12 -74 12 -134 -1z m123 -27 c-3 -5 -11 -10 -16 -10 -6 0 -7 5 -4 10 3
6 11 10 16 10 6 0 7 -4 4 -10z"/>
<path d="M3651 3296 c-10 -12 -8 -13 8 -9 12 3 18 9 15 14 -7 12 -10 11 -23
-5z"/>
<path d="M3310 3283 c0 -12 95 -173 102 -173 4 0 0 20 -10 45 -9 25 -20 45
-24 45 -4 0 -8 5 -8 12 0 15 -42 78 -52 78 -5 0 -8 -3 -8 -7z"/>
<path d="M5221 3657 c-6 -6 -23 -12 -38 -13 -32 -1 -44 -24 -14 -24 12 0 21
-4 21 -10 0 -5 10 -10 23 -10 25 0 71 36 62 49 -8 15 -43 19 -54 8z"/>
<path d="M4170 3312 c0 -12 3 -12 15 -2 8 7 15 13 15 15 0 1 -7 2 -15 2 -8 0
-15 -7 -15 -15z"/>
<path d="M2085 3490 c3 -5 8 -10 11 -10 2 0 4 5 4 10 0 6 -5 10 -11 10 -5 0
-7 -4 -4 -10z"/>
<path d="M1950 3430 c0 -5 5 -10 11 -10 5 0 7 5 4 10 -3 6 -8 10 -11 10 -2 0
-4 -4 -4 -10z"/>
<path d="M2126 3393 c-12 -12 -6 -33 9 -33 8 0 15 6 15 14 0 17 -14 28 -24 19z"/>
<path d="M2096 3353 c-6 -14 -5 -15 5 -6 7 7 10 15 7 18 -3 3 -9 -2 -12 -12z"/>
<path d="M1790 3348 c-16 -7 -20 -12 -12 -15 8 -3 21 2 30 11 19 18 17 19 -18
4z"/>
<path d="M1885 3269 c-4 -6 -5 -12 -2 -15 7 -7 37 7 37 17 0 13 -27 11 -35 -2z"/>
<path d="M1945 3201 c-16 -4 -29 -11 -28 -16 4 -17 39 -17 53 0 16 20 12 23
-25 16z"/>
<path d="M5240 3110 c0 -5 5 -10 11 -10 5 0 7 5 4 10 -3 6 -8 10 -11 10 -2 0
-4 -4 -4 -10z"/>
<path d="M882 4791 c2 -7 7 -12 11 -12 12 1 9 15 -3 20 -7 2 -11 -2 -8 -8z"/>
<path d="M1705 4793 c11 -3 24 -12 30 -20 9 -12 11 -11 12 6 1 17 -4 21 -30
20 -21 -1 -25 -3 -12 -6z"/>
<path d="M1820 4791 c0 -5 9 -7 20 -4 11 3 20 7 20 9 0 2 -9 4 -20 4 -11 0
-20 -4 -20 -9z"/>
<path d="M1886 4785 c4 -8 8 -15 10 -15 2 0 4 7 4 15 0 8 -4 15 -10 15 -5 0
-7 -7 -4 -15z"/>
<path d="M2130 4794 c0 -3 5 -14 10 -25 8 -14 7 -19 -2 -19 -9 0 -9 -3 -2 -8
16 -10 25 -54 13 -68 -5 -7 -6 -27 -1 -50 7 -35 11 -39 41 -42 30 -3 33 -6 28
-30 -8 -44 3 -57 24 -26 16 26 17 30 3 45 -20 22 -15 65 7 61 16 -2 73 47 64
56 -2 3 -13 -6 -23 -18 -11 -13 -21 -19 -25 -13 -10 16 31 53 60 53 23 0 25 3
20 29 -5 23 -2 30 19 39 16 8 24 8 24 1 0 -6 5 -7 11 -3 18 11 -12 24 -57 24
-25 0 -47 -6 -54 -15 -7 -8 -18 -15 -25 -15 -6 0 -18 -11 -25 -25 -9 -17 -22
-25 -39 -25 -24 1 -25 1 -6 12 33 18 46 39 34 55 -20 23 -40 16 -33 -12 5 -19
2 -25 -11 -25 -13 0 -16 6 -11 25 6 22 3 25 -19 25 -14 0 -25 -3 -25 -6z m80
-189 c0 -8 -7 -15 -15 -15 -26 0 -18 20 13 29 1 1 2 -6 2 -14z"/>
<path d="M5130 4790 c0 -5 5 -10 10 -10 6 0 10 5 10 10 0 6 -4 10 -10 10 -5 0
-10 -4 -10 -10z"/>
<path d="M1982 4778 c3 -7 15 -14 29 -16 24 -4 24 -3 4 12 -24 19 -38 20 -33
4z"/>
<path d="M2767 4773 c9 -7 11 -13 5 -13 -7 0 -12 -4 -12 -9 0 -12 39 -21 46
-10 3 5 0 9 -7 9 -6 0 -9 8 -6 19 3 15 -1 18 -19 17 -22 -1 -23 -2 -7 -13z"/>
<path d="M2375 4750 c-3 -5 1 -10 9 -10 9 0 16 5 16 10 0 6 -4 10 -9 10 -6 0
-13 -4 -16 -10z"/>
<path d="M2650 4685 c-14 -16 -3 -20 19 -6 8 5 9 11 3 15 -5 3 -15 -1 -22 -9z"/>
<path d="M2436 4663 c-3 -10 -9 -24 -12 -31 -5 -11 -2 -12 15 -3 11 7 21 21
21 31 0 25 -16 26 -24 3z"/>
<path d="M2281 4623 c0 -5 4 -17 8 -28 5 -12 4 -25 -2 -33 -7 -9 -7 -16 2 -25
9 -9 13 -7 17 11 4 12 11 22 16 22 12 0 -1 42 -16 52 -14 10 -26 10 -25 1z"/>
<path d="M6330 4524 l-45 -14 50 6 c28 3 54 10 60 15 13 12 -10 10 -65 -7z"/>
<path d="M6271 4454 c0 -11 3 -14 6 -6 3 7 2 16 -1 19 -3 4 -6 -2 -5 -13z"/>
<path d="M6381 4447 c-13 -21 -12 -21 5 -5 10 10 16 20 13 22 -3 3 -11 -5 -18
-17z"/>
<path d="M6227 4393 c-24 -23 9 -31 39 -8 18 14 18 14 -7 15 -14 0 -29 -3 -32
-7z"/>
<path d="M6220 4324 c0 -11 6 -14 23 -9 38 12 43 25 9 25 -22 0 -32 -5 -32
-16z"/>
<path d="M1465 3750 c-3 -5 -1 -10 4 -10 6 0 11 5 11 10 0 6 -2 10 -4 10 -3 0
-8 -4 -11 -10z"/>
<path d="M1330 2890 c-39 -38 -70 -75 -70 -81 0 -13 36 14 58 44 7 9 17 17 23
17 5 0 26 11 47 23 20 13 55 30 77 37 38 13 39 14 15 21 -63 18 -78 12 -150
-61z"/>
<path d="M0 2914 c0 -8 5 -12 10 -9 6 3 10 10 10 16 0 5 -4 9 -10 9 -5 0 -10
-7 -10 -16z"/>
<path d="M1970 2917 c0 -11 29 -67 35 -67 3 0 5 6 5 13 0 13 -39 67 -40 54z"/>
<path d="M343 2869 c-7 -20 -13 -45 -13 -58 0 -12 -7 -24 -15 -28 -20 -7 -30
3 -19 19 6 7 7 31 4 53 -5 35 -7 37 -13 18 -5 -13 -5 -27 -2 -33 3 -6 -3 -14
-14 -18 -11 -4 -20 -11 -21 -17 0 -5 -12 -11 -26 -12 -15 -1 -35 -10 -47 -20
-20 -18 -20 -18 -3 9 17 26 17 26 -3 21 -12 -3 -21 -9 -21 -14 0 -5 -7 -9 -16
-9 -8 0 -12 5 -8 11 4 8 -1 9 -16 4 -14 -4 -20 -3 -16 3 3 5 -3 12 -14 15 -11
3 -22 1 -25 -3 -10 -16 18 -60 37 -60 11 0 28 -5 39 -10 11 -6 25 -7 32 -3 15
9 48 5 64 -9 13 -10 53 6 53 22 0 5 12 10 27 12 23 3 29 10 40 53 17 64 13
103 -4 54z"/>
<path d="M2175 2840 c-21 -22 -43 -40 -49 -40 -5 0 -17 -6 -25 -14 -9 -7 -29
-18 -46 -24 -29 -10 -29 -10 -4 -11 14 -1 30 4 37 11 7 7 12 8 12 4 0 -30 -90
-48 -131 -26 -17 10 -19 7 -19 -25 0 -20 6 -38 13 -40 6 -3 49 -7 94 -8 l82
-3 -4 45 c-3 36 -3 39 3 16 l8 -30 8 41 c7 42 19 69 50 117 25 38 17 34 -29
-13z"/>
<path d="M1673 2856 c-13 -6 -23 -14 -23 -18 0 -5 -7 -8 -15 -8 -11 0 -15 -12
-15 -47 0 -27 -3 -58 -6 -70 -5 -17 -2 -23 10 -23 9 0 15 3 15 8 -4 24 3 34
21 29 23 -6 24 -3 10 23 -7 13 -7 21 0 25 16 10 12 25 -5 19 -20 -8 -10 23 18
54 22 24 22 25 -10 8z"/>
<path d="M820 2845 c-20 -24 -6 -28 15 -5 10 11 13 20 8 20 -6 0 -16 -7 -23
-15z"/>
<path d="M380 2814 c-7 -21 -17 -45 -23 -52 -7 -9 -5 -21 10 -40 26 -35 47
-35 51 1 3 21 8 27 28 27 16 0 24 5 21 13 -2 6 -12 11 -21 11 -9 -1 -16 2 -16
7 0 5 -10 9 -21 9 -18 0 -19 3 -9 14 8 10 8 21 2 32 -8 14 -12 10 -22 -22z"/>
<path d="M603 2808 c-24 -11 -36 -34 -27 -49 11 -19 30 -8 46 26 17 37 15 39
-19 23z"/>
<path d="M1743 2800 c-20 -50 -24 -70 -14 -70 12 0 34 66 28 83 -3 7 -9 1 -14
-13z"/>
<path d="M1363 2766 c3 -6 13 -35 23 -63 10 -29 24 -53 31 -53 6 0 18 -2 25
-5 9 -4 19 4 26 20 10 21 18 25 57 25 51 0 58 10 18 26 -55 23 -95 25 -116 7
-19 -17 -20 -17 -14 0 4 11 1 20 -8 23 -8 4 -15 12 -15 18 0 7 -7 13 -15 13
-9 0 -14 -5 -12 -11z"/>
<path d="M900 2734 c0 -8 5 -12 10 -9 6 3 10 10 10 16 0 5 -4 9 -10 9 -5 0
-10 -7 -10 -16z"/>
<path d="M1903 2715 c0 -22 2 -30 4 -17 2 12 2 30 0 40 -3 9 -5 -1 -4 -23z"/>
<path d="M5512 2723 c1 -5 -3 -17 -9 -29 -7 -12 -8 -25 -2 -35 7 -12 9 -12 9
1 0 8 7 27 14 43 13 23 13 27 0 27 -8 0 -13 -3 -12 -7z"/>
<path d="M1763 2659 c-6 -6 -23 -11 -36 -11 -17 0 -24 -5 -20 -14 13 -35 83
-21 83 16 0 22 -10 26 -27 9z"/>
<path d="M5685 2625 c-34 -40 -51 -44 -60 -15 -5 16 -10 18 -25 10 -25 -14
-30 -13 -30 6 0 11 -5 14 -16 10 -9 -3 -20 -6 -25 -6 -5 0 -4 -10 3 -22 7 -13
14 -24 15 -26 1 -2 11 1 22 8 17 9 21 8 21 -4 0 -22 17 -28 40 -16 16 8 20 8
18 -2 -2 -8 6 -12 22 -10 87 11 103 16 137 48 47 45 34 62 -26 33 -45 -22 -77
-19 -67 6 8 21 5 19 -29 -20z"/>
<path d="M4085 2575 c-22 -19 -47 -34 -56 -35 -9 0 -16 -7 -16 -15 0 -11 6
-14 16 -9 9 4 27 7 40 8 21 1 81 58 81 78 0 17 -27 6 -65 -27z"/>
<path d="M4170 2600 c0 -13 11 -13 30 0 12 8 11 10 -7 10 -13 0 -23 -4 -23
-10z"/>
<path d="M4350 2600 c0 -6 -10 -10 -22 -10 -38 0 1 -28 52 -39 25 -5 54 -12
64 -16 14 -6 17 -5 12 3 -4 7 -2 12 3 12 6 0 11 -4 11 -10 0 -5 5 -10 10 -10
6 0 10 10 10 22 0 12 -3 18 -7 15 -3 -4 -17 3 -30 15 -13 12 -23 16 -23 10 0
-7 -11 -12 -25 -12 -14 0 -25 4 -25 9 0 5 -7 11 -15 15 -8 3 -15 1 -15 -4z"/>
<path d="M4506 2585 c10 -16 24 -38 32 -47 14 -16 13 -18 -6 -18 -11 0 -23 6
-25 13 -4 9 -6 9 -6 0 -1 -7 7 -17 18 -22 14 -8 23 -5 41 14 20 21 21 25 7 25
-10 0 -31 15 -48 33 l-30 32 17 -30z"/>
<path d="M3977 2573 c-11 -10 -8 -43 3 -43 6 0 10 11 10 25 0 26 -2 29 -13 18z"/>
<path d="M715 2561 c-4 -8 -18 -11 -35 -7 l-28 5 1 -92 c0 -77 -4 -103 -26
-161 -34 -85 -34 -121 -2 -169 14 -20 27 -37 28 -37 4 0 69 34 84 43 10 6 10
14 -2 38 -17 32 -26 35 -57 18 -26 -14 -34 -5 -20 27 7 15 30 33 57 45 49 22
51 25 33 64 -8 18 -17 24 -30 19 -16 -5 -18 1 -18 45 0 49 2 52 35 68 41 20
44 37 12 77 -17 21 -26 26 -32 17z"/>
<path d="M3250 2539 c0 -11 5 -17 10 -14 6 3 10 13 10 21 0 8 -4 14 -10 14 -5
0 -10 -9 -10 -21z"/>
<path d="M3212 2528 c7 -15 15 -23 17 -17 2 6 -4 18 -13 27 -15 15 -15 15 -4
-10z"/>
<path d="M1047 2453 c6 -73 5 -77 -11 -64 -24 20 -35 6 -57 -75 -26 -94 -25
-208 1 -251 11 -18 27 -33 35 -33 8 0 22 15 30 33 l15 32 -4 -37 c-4 -30 0
-41 17 -53 48 -34 47 -47 26 305 -9 140 -15 189 -27 203 -26 30 -31 19 -25
-60z m-2 -280 c-4 -29 -11 -53 -16 -53 -25 0 -24 128 2 185 l14 30 3 -55 c2
-30 1 -79 -3 -107z"/>
<path d="M1302 2497 c-34 -45 -42 -145 -13 -171 28 -25 40 -13 34 35 -5 31 -1
47 16 70 17 22 19 33 12 48 -13 24 -37 33 -49 18z"/>
<path d="M1379 2484 c-7 -9 -15 -46 -17 -83 -3 -57 -1 -69 16 -85 30 -26 40
-14 34 42 -3 36 0 51 12 61 21 18 20 44 -2 64 -23 21 -26 21 -43 1z"/>
<path d="M1501 2471 c-25 -25 -51 -111 -51 -168 0 -49 17 -88 64 -148 24 -31
31 -48 29 -81 -2 -45 -17 -84 -33 -84 -6 0 -10 22 -10 49 0 45 -2 50 -30 61
-49 20 -60 9 -54 -52 9 -81 21 -105 69 -128 33 -16 48 -18 69 -11 41 16 66 67
66 134 0 64 -5 78 -56 144 -37 48 -43 94 -23 166 17 62 31 44 27 -34 -3 -68
-1 -73 24 -92 52 -39 67 -5 60 132 -3 52 -12 65 -71 103 -53 33 -55 34 -80 9z"/>
<path d="M798 2327 c-4 -75 -12 -120 -31 -170 -24 -64 -24 -68 -7 -77 22 -12
50 -13 51 -2 4 47 45 203 63 243 15 33 16 31 13 -76 -3 -79 -8 -119 -20 -142
-17 -32 -17 -33 7 -49 14 -8 29 -13 35 -10 17 11 33 146 29 237 -3 68 -8 93
-23 109 -24 26 -45 26 -53 -2 l-5 -22 -8 22 c-4 11 -17 25 -27 31 -18 10 -20
5 -24 -92z"/>
<path d="M1750 2376 c0 -58 -12 -86 -36 -86 -19 0 -24 -5 -24 -25 0 -14 10
-35 21 -46 l21 -21 -22 -122 c-12 -66 -26 -129 -31 -138 -12 -23 -3 -41 31
-61 32 -20 39 -14 46 37 2 19 15 86 29 150 14 64 25 118 25 121 0 3 11 5 25 5
14 0 28 6 31 14 7 17 -21 72 -38 78 -10 4 -9 13 5 42 9 20 17 40 17 45 0 12
-47 31 -75 31 -20 0 -25 -5 -25 -24z"/>
<path d="M2804 2312 c-57 -42 -133 -127 -150 -168 -18 -42 -7 -94 27 -130 l22
-23 -71 -68 c-40 -39 -74 -80 -78 -96 -9 -38 2 -89 29 -128 47 -70 105 -62
253 36 55 36 109 65 121 65 31 0 54 40 56 97 l2 48 -80 -4 c-44 -1 -85 -7 -92
-13 -6 -5 -13 -24 -15 -41 -4 -37 -60 -85 -133 -112 -131 -51 -8 87 158 175
49 27 57 35 57 60 0 18 -11 42 -28 61 -27 31 -30 31 -66 19 -20 -6 -40 -9 -44
-6 -8 9 86 104 120 122 25 13 28 12 53 -18 21 -25 30 -30 43 -21 47 29 3 111
-82 152 -54 27 -55 27 -102 -7z"/>
<path d="M3360 2310 c-17 -17 -19 -24 -9 -42 18 -33 4 -164 -26 -243 -14 -38
-24 -69 -23 -70 2 -2 39 9 83 24 79 26 80 26 100 76 11 28 24 53 30 57 27 20
169 60 198 55 18 -2 40 -1 49 4 23 13 39 44 32 63 -9 23 -98 86 -121 86 -11 0
-52 -11 -93 -25 l-73 -25 -55 30 c-66 36 -66 36 -92 10z"/>
<path d="M1941 2245 c-53 -61 -92 -183 -92 -291 0 -79 10 -98 69 -128 65 -33
86 -21 138 77 30 58 64 184 64 239 0 21 -6 53 -14 71 -11 27 -23 35 -68 50
-30 9 -57 17 -60 17 -3 0 -20 -16 -37 -35z m87 -101 c7 -76 -49 -250 -84 -261
-19 -6 -25 43 -14 111 25 155 90 254 98 150z"/>
<path d="M2177 2228 c4 -43 -5 -93 -47 -258 -28 -113 -61 -226 -72 -252 -23
-54 -20 -70 16 -93 28 -18 46 -13 46 13 0 9 13 53 29 97 28 79 29 80 42 53 19
-43 46 -35 112 32 99 102 158 256 127 331 -13 32 -82 89 -106 89 -7 0 -22 -19
-33 -42 -17 -35 -20 -38 -20 -18 2 62 0 68 -41 84 -22 9 -44 16 -49 16 -5 0
-7 -24 -4 -52z m161 -146 c4 -44 -36 -130 -88 -186 -24 -25 -46 -46 -51 -46
-10 0 38 133 77 213 32 65 57 73 62 19z"/>
<path d="M5145 2250 c-49 -19 -63 -50 -180 -405 -45 -137 -103 -308 -129 -378
-26 -71 -46 -136 -44 -145 2 -9 22 -30 46 -46 32 -22 54 -30 89 -30 47 -1 48
0 60 39 47 147 66 186 95 201 16 9 31 14 32 12 2 -2 22 -62 45 -135 44 -136
87 -213 119 -213 27 0 140 57 168 85 l26 26 -26 28 c-24 25 -41 64 -111 248
l-24 62 102 72 c201 142 207 148 207 176 0 35 -68 103 -104 103 -36 0 -48 -7
-214 -127 -80 -57 -147 -102 -149 -99 -8 7 133 394 154 423 10 14 23 32 28 40
13 17 -4 29 -70 47 -78 22 -98 25 -120 16z"/>
<path d="M5955 2211 c-81 -23 -104 -37 -111 -67 -5 -21 0 -32 31 -60 34 -31
37 -38 32 -70 -8 -50 -50 -110 -89 -130 -43 -22 -41 -19 -28 -43 9 -18 20 -21
68 -21 119 1 213 56 262 154 47 93 37 186 -25 234 -33 26 -59 27 -140 3z"/>
<path d="M6320 2180 c-91 -24 -120 -40 -127 -68 -5 -20 2 -31 37 -63 39 -36
42 -42 37 -76 -9 -50 -54 -112 -99 -136 -45 -22 -48 -40 -12 -63 23 -15 34
-16 101 -6 41 7 90 19 109 28 l34 16 0 194 c0 107 -3 194 -7 193 -5 0 -37 -9
-73 -19z"/>
<path d="M4225 2008 c-16 -6 -35 -12 -42 -14 -20 -5 -40 -65 -89 -263 -25
-102 -52 -196 -60 -208 -8 -12 -14 -27 -14 -32 0 -13 57 -43 123 -65 66 -22
92 -9 83 42 -7 46 85 403 116 446 15 21 18 33 11 45 -9 15 -82 62 -93 60 -3
-1 -18 -6 -35 -11z"/>
<path d="M4514 1977 c-61 -42 -105 -111 -112 -175 -3 -41 0 -52 22 -79 15 -17
52 -48 84 -69 31 -21 60 -42 64 -48 22 -32 -5 -147 -36 -159 -23 -9 -28 8 -21
67 l7 54 -53 15 c-93 26 -109 28 -129 17 -18 -10 -18 -12 5 -79 34 -101 39
-108 118 -148 87 -44 160 -50 217 -18 67 39 101 156 66 224 -8 15 -51 56 -96
91 -77 59 -82 65 -76 93 9 42 52 114 78 128 20 11 21 10 13 -42 -15 -103 -16
-101 48 -132 59 -29 104 -30 111 -4 37 137 46 189 36 207 -13 25 -41 40 -74
40 -14 0 -60 11 -103 25 -43 14 -88 25 -99 25 -12 0 -44 -15 -70 -33z"/>
<path d="M4065 1974 c-75 -29 -316 -94 -346 -94 -25 0 -59 -73 -84 -180 -9
-41 -23 -93 -31 -115 -19 -54 -19 -54 20 -70 104 -44 173 -38 163 13 -3 14 -1
55 5 90 l10 64 130 127 c71 69 140 132 154 139 13 7 24 19 24 27 0 8 -1 15 -2
14 -2 0 -21 -7 -43 -15z"/>
<path d="M3491 1923 c-27 -21 -30 -28 -18 -35 9 -4 26 -4 40 1 30 12 35 8 30
-23 -5 -22 -24 -29 -39 -13 -9 9 -67 9 -88 1 -21 -8 -21 -34 0 -34 8 0 25 -5
36 -11 17 -9 18 -13 7 -21 -10 -7 -8 -7 9 -3 13 4 22 2 22 -4 0 -19 21 -12 50
17 26 26 27 32 20 73 -10 52 -20 79 -29 79 -3 0 -21 -12 -40 -27z"/>
<path d="M3257 1864 c-10 -20 -15 -44 -12 -53 3 -10 -3 -20 -18 -26 -15 -7
-31 -34 -52 -88 -27 -73 -28 -81 -14 -105 23 -42 92 -86 122 -78 29 7 43 37
29 63 -14 27 13 144 38 165 11 9 20 18 20 21 0 3 -20 8 -44 11 -50 8 -58 19
-47 69 12 51 -2 64 -22 21z"/>
<path d="M870 1846 c0 -8 20 -41 45 -75 50 -67 56 -82 23 -51 -12 11 -23 18
-26 16 -11 -11 32 -108 54 -122 29 -20 54 -12 54 16 0 27 -32 90 -59 114 -11
10 -35 41 -52 67 -33 52 -39 57 -39 35z"/>
<path d="M48 1802 c-38 -29 -48 -43 -48 -67 l0 -29 39 42 c22 23 47 42 56 42
14 0 15 3 5 15 -6 8 -9 19 -5 25 9 14 5 12 -47 -28z"/>
<path d="M920 1823 c1 -21 18 -44 45 -59 21 -11 84 -127 85 -155 0 -17 37 -55
45 -47 3 3 1 17 -5 32 -17 46 -11 53 9 11 24 -52 94 -120 113 -110 7 5 10 5 6
1 -3 -4 2 -16 13 -27 10 -10 19 -27 19 -37 0 -22 44 -67 58 -58 5 3 26 -11 48
-32 60 -57 26 -51 -137 21 -80 36 -208 89 -284 120 -77 31 -178 74 -225 96
-117 55 -231 81 -375 88 -119 6 -121 5 -137 -18 -8 -13 -56 -44 -107 -69 l-91
-45 0 -767 0 -768 1815 0 1815 0 5 23 c3 12 13 62 23 111 l19 89 47 4 c33 3
46 1 41 -6 -3 -6 -1 -11 6 -11 11 0 10 -16 -7 -94 l-7 -30 37 37 c20 20 46 37
56 37 12 0 20 7 21 18 0 12 3 10 12 -8 15 -34 12 -32 54 -39 l38 -7 -42 -29
c-24 -17 -62 -43 -85 -60 l-43 -30 237 -3 c131 -1 343 -1 472 0 l234 3 -171
64 c-95 35 -273 103 -397 152 -387 151 -922 356 -1265 485 -181 68 -393 148
-470 178 -77 30 -187 71 -244 91 -142 50 -191 72 -191 85 0 5 -7 10 -16 10 -8
0 -13 4 -10 9 4 5 -15 17 -41 27 -61 23 -176 136 -205 202 -13 28 -22 72 -24
108 -2 55 -29 134 -51 147 -5 3 -29 -2 -55 -11 -51 -16 -59 -33 -34 -67 12
-17 14 -17 37 -2 26 19 59 23 59 7 0 -5 -18 -19 -39 -30 -22 -11 -46 -29 -54
-40 -13 -19 -15 -18 -61 23 l-47 42 35 48 c48 67 52 94 24 152 -23 46 -23 47
-62 41 -23 -4 -44 -2 -52 5 -20 17 -31 4 -43 -52 -15 -68 -14 -137 3 -192 11
-36 11 -44 1 -41 -7 3 -15 14 -18 24 -3 13 -11 17 -26 13 -11 -3 -18 -10 -14
-16 3 -6 1 -7 -6 -3 -6 4 -9 16 -6 27 4 11 2 19 -4 19 -6 0 -11 9 -11 20 0 34
-39 126 -64 149 -23 22 -25 22 -35 4 -10 -17 -10 -16 -11 4 0 20 -25 43 -46
43 -4 0 -4 -21 -1 -47 l6 -48 -19 36 c-20 39 -58 69 -87 69 -25 1 -50 22 -62
53 -13 33 -51 56 -51 30z m570 -177 c0 -15 -60 -95 -72 -95 -19 -2 -6 62 17
84 27 27 55 33 55 11z m-257 -81 l6 -40 -14 30 c-16 34 -20 75 -6 60 5 -6 11
-28 14 -50z m-410 -146 c-7 -27 -23 -5 -23 31 1 23 2 24 14 7 8 -10 11 -27 9
-38z m707 -84 c0 -4 -15 7 -34 26 -18 19 -32 37 -29 41 4 8 63 -55 63 -67z
m115 35 c-4 -12 -9 -19 -12 -17 -3 3 -2 15 2 27 4 12 9 19 12 17 3 -3 2 -15
-2 -27z m-829 -52 c-7 -48 -6 -50 10 -37 13 11 16 11 13 1 -2 -7 -20 -23 -39
-35 l-35 -22 18 28 c9 15 20 47 24 72 3 25 8 45 11 45 2 0 1 -23 -2 -52z m798
3 c10 -11 15 -24 11 -30 -3 -7 0 -8 9 -5 10 4 18 -1 22 -11 4 -9 13 -14 20
-11 8 3 13 0 11 -7 -1 -7 4 -11 11 -9 6 1 11 -4 10 -10 -2 -7 2 -12 9 -11 7 2
10 -4 7 -12 -4 -9 0 -15 10 -15 9 0 16 -8 16 -17 0 -15 2 -16 10 -3 5 8 10 10
10 4 0 -22 -13 -23 -40 -4 -15 11 -49 29 -74 40 -58 24 -91 54 -80 72 4 7 -3
4 -16 -7 -23 -20 -21 -14 10 33 18 27 22 27 44 3z m-69 -3 c3 3 3 -1 0 -9 -3
-9 -12 -16 -20 -16 -8 0 -12 4 -9 9 3 4 -2 8 -10 8 -9 0 -16 4 -16 10 0 6 9 6
24 0 13 -5 27 -6 31 -2z m-706 -110 c-55 -71 -138 -158 -150 -158 -11 0 37 95
56 110 9 8 11 3 7 -16 -5 -26 -3 -25 31 12 19 21 34 40 32 42 -1 1 -14 -3 -29
-9 -27 -13 -43 -8 -31 10 3 6 16 11 29 11 13 0 38 11 57 24 19 13 35 25 37 25
1 1 -16 -23 -39 -51z m531 -2 c0 -12 -64 -38 -125 -52 -5 -1 -29 -7 -53 -13
-23 -7 -47 -9 -53 -5 -16 10 -131 -27 -154 -50 -20 -19 -20 -19 5 -12 14 4 66
11 115 16 50 5 110 14 135 20 61 13 310 34 392 34 39 -1 74 -6 83 -14 21 -17
19 -56 -2 -59 -47 -6 -76 -3 -83 9 -5 8 -19 14 -32 15 -12 1 -34 5 -48 9 -18
5 -31 2 -45 -11 -24 -22 -105 -31 -105 -12 0 7 -3 9 -7 6 -3 -4 -14 0 -24 9
-17 15 -18 15 -14 -4 2 -15 0 -19 -11 -15 -8 3 -14 9 -14 13 0 9 -50 -3 -72
-17 -7 -4 -35 -8 -61 -9 -35 -2 -56 -9 -73 -25 -16 -15 -24 -18 -24 -9 0 11
-3 10 -12 -2 -7 -8 -20 -18 -29 -21 -13 -4 -15 -1 -12 14 5 16 1 19 -24 17
-16 -1 -34 2 -41 6 -8 5 -21 1 -33 -10 -10 -9 -19 -13 -19 -8 0 5 -5 2 -10 -8
-7 -10 -18 -14 -32 -11 -13 3 -20 2 -15 -2 4 -5 -7 -15 -25 -23 -18 -8 -27
-16 -20 -19 17 -6 15 -43 -2 -43 -8 0 -17 -9 -21 -19 -3 -10 -16 -21 -28 -24
-35 -8 -91 -31 -98 -41 -10 -13 -47 3 -45 20 4 26 238 240 293 267 65 33 245
88 271 83 15 -3 52 -2 82 3 82 13 90 12 90 -3z m-1050 -96 c0 -5 -5 -10 -11
-10 -5 0 -7 5 -4 10 3 6 8 10 11 10 2 0 4 -4 4 -10z m-221 -130 c6 0 11 4 11
9 0 4 11 6 25 3 14 -2 32 1 40 8 12 10 15 9 15 -4 0 -15 -16 -21 -46 -17 -7 1
-14 -8 -17 -19 -3 -12 -13 -20 -24 -19 -16 1 -16 2 0 6 9 2 17 9 17 15 0 6
-10 8 -21 5 -22 -6 -59 11 -59 26 0 4 5 5 10 2 6 -3 10 0 10 7 1 9 5 7 14 -4
7 -10 18 -18 25 -18z m161 4 c11 -28 13 -61 4 -52 -3 4 -6 12 -8 20 -3 24 -16
37 -31 31 -8 -3 -15 -1 -15 5 0 10 15 19 33 21 4 1 12 -11 17 -25z m455 16
c10 -16 -15 -40 -41 -40 -30 0 -31 14 -2 34 26 19 35 20 43 6z m300 -51 c4 -6
5 -13 2 -15 -11 -11 -68 -15 -84 -5 -15 8 -12 11 17 19 47 14 58 14 65 1z
m835 -9 c27 -27 25 -35 -12 -58 -36 -23 -62 -16 -73 19 -5 16 -9 18 -21 8 -11
-9 -18 -9 -26 -1 -6 6 -16 9 -22 8 -6 -2 -8 -1 -3 1 11 7 9 23 -4 23 -5 0 -30
-9 -54 -20 -38 -17 -78 -22 -167 -19 -11 0 -18 8 -18 20 0 10 1 19 3 19 1 1
52 3 112 7 61 3 112 7 114 9 2 2 37 4 78 4 60 0 77 -4 93 -20z m-1193 -6 c-3
-3 -12 -4 -19 -1 -8 3 -5 6 6 6 11 1 17 -2 13 -5z m250 -9 c0 -8 -7 -15 -15
-15 -12 0 -12 3 -2 15 7 8 13 15 15 15 1 0 2 -7 2 -15z m377 -14 c3 -5 -1 -12
-10 -15 -20 -8 -29 -1 -19 13 8 13 22 14 29 2z m-691 -105 c7 3 3 -2 -7 -10
-23 -19 -29 -16 -19 10 4 11 8 13 11 6 2 -7 9 -10 15 -6z m-66 -38 c0 -7 3
-20 7 -28 4 -10 -4 -19 -26 -29 -18 -8 -38 -21 -44 -29 -14 -19 -90 -23 -105
-6 -8 10 -4 19 18 38 15 14 33 26 38 26 32 4 60 12 83 25 15 8 27 14 28 15 0
0 1 -6 1 -12z m1253 -3 c10 -12 9 -20 -4 -40 -18 -27 -60 -34 -69 -11 -4 10
-19 12 -57 8 -50 -5 -51 -4 -39 16 22 34 146 55 169 27z m-1430 -4 c0 -5 -7
-12 -16 -15 -24 -9 -28 -7 -14 9 14 17 30 20 30 6z m1250 -12 c0 -5 -4 -7 -10
-4 -5 3 -10 2 -10 -4 0 -17 -80 -33 -119 -25 -20 4 -39 7 -43 6 -5 -1 -8 4 -8
12 0 18 24 23 118 25 45 0 72 -3 72 -10z m-327 -5 c12 -12 -23 -64 -43 -64
-25 0 -26 27 -3 52 16 18 35 23 46 12z m-943 -67 c0 -5 -8 -11 -19 -14 -29 -8
-40 -42 -25 -83 15 -42 18 -110 4 -110 -5 0 -10 4 -10 9 0 5 -9 11 -20 14 -11
3 -17 1 -14 -4 8 -13 -16 -40 -27 -33 -5 3 -16 20 -24 37 -14 32 -14 32 -9
-18 4 -27 12 -77 20 -110 17 -74 17 -82 2 -82 -7 0 -29 -4 -49 -7 -36 -8 -36
-7 -58 46 -33 80 -48 193 -32 251 15 51 27 65 86 95 29 15 58 20 108 19 37 0
67 -5 67 -10z m50 -117 c0 -12 -28 -25 -36 -17 -9 9 6 27 22 27 8 0 14 -5 14
-10z m1937 -12 c-3 -8 -6 -5 -6 6 -1 11 2 17 5 13 3 -3 4 -12 1 -19z m-1084
-28 c-3 -11 -9 -18 -13 -15 -5 3 -10 -1 -13 -7 -2 -7 -7 -10 -11 -6 -11 9 12
48 28 48 9 0 12 -7 9 -20z m389 -42 c-5 -5 -18 -8 -28 -5 -17 4 -17 6 4 12 12
4 22 12 23 19 0 6 3 5 6 -2 3 -8 1 -18 -5 -24z m-347 -48 c3 -5 2 -10 -4 -10
-5 0 -13 5 -16 10 -3 6 -2 10 4 10 5 0 13 -4 16 -10z m655 -134 c0 -5 -60 -36
-69 -36 -12 1 42 40 55 40 8 0 14 -2 14 -4z m-1505 -36 c-3 -5 -14 -10 -23
-10 -15 0 -15 2 -2 10 20 13 33 13 25 0z m1180 -160 c-3 -5 -10 -10 -16 -10
-5 0 -9 5 -9 10 0 6 7 10 16 10 8 0 12 -4 9 -10z m-195 -60 c0 -5 -5 -10 -11
-10 -5 0 -7 5 -4 10 3 6 8 10 11 10 2 0 4 -4 4 -10z"/>
<path d="M490 750 c-13 -8 -13 -10 -1 -10 11 0 9 -4 -5 -15 -18 -14 -17 -14 9
-3 17 7 23 14 16 19 -8 5 -7 8 2 12 8 3 10 6 4 6 -5 0 -17 -4 -25 -9z"/>
<path d="M1931 1567 c-17 -17 -13 -52 7 -70 25 -23 31 -21 42 8 15 40 -23 88
-49 62z"/>
<path d="M1782 1517 c-23 -28 -52 -103 -52 -137 0 -60 33 -115 85 -146 41 -24
52 -26 76 -17 16 6 27 7 23 2 -3 -5 -1 -9 5 -9 5 0 12 6 15 13 5 9 7 9 12 -1
6 -13 44 -35 83 -47 22 -7 23 -5 18 21 -5 27 -4 27 9 9 8 -10 14 -15 14 -11 0
4 14 -4 31 -18 36 -30 64 -33 78 -8 6 10 11 12 11 4 0 -12 57 -42 81 -42 33 0
-50 180 -115 248 -54 56 -72 61 -130 37 -40 -17 -39 -31 2 -69 19 -17 22 -17
44 -2 25 18 58 21 58 6 0 -6 -12 -15 -27 -21 -16 -6 -40 -22 -55 -36 -15 -14
-31 -22 -38 -18 -20 12 -40 72 -40 118 0 33 -6 49 -23 65 -13 12 -27 22 -31
22 -4 0 -6 -42 -4 -94 3 -92 3 -93 -17 -80 -25 18 -55 18 -55 0 0 -8 -4 -18
-10 -21 -6 -4 -7 1 -3 11 4 11 3 15 -5 10 -14 -8 -32 24 -32 58 0 35 31 109
41 99 5 -5 4 -25 -2 -46 -11 -41 -8 -52 22 -67 18 -10 19 -7 19 54 0 55 -4 69
-26 95 -28 34 -45 38 -62 18z m368 -251 c0 -2 -7 -9 -15 -16 -13 -11 -14 -10
-9 4 5 14 24 23 24 12z"/>
<path d="M2210 1470 c0 -68 17 -141 52 -225 17 -38 32 -81 35 -93 6 -23 56
-62 81 -62 20 0 14 24 -39 163 -37 94 -52 148 -53 186 -2 56 -20 81 -58 81
-15 0 -18 -8 -18 -50z"/>
<path d="M2430 1461 c0 -13 15 -63 66 -221 19 -58 34 -117 34 -132 0 -19 11
-36 37 -57 65 -54 71 -44 46 82 -5 27 -4 28 17 17 48 -26 93 18 106 103 13 84
-91 187 -201 198 -33 4 -70 10 -82 14 -15 5 -23 3 -23 -4z m195 -149 c-1 -34
-6 -58 -17 -69 -15 -15 -18 -12 -33 41 -19 64 -10 90 29 84 18 -3 21 -10 21
-56z"/>
<path d="M3900 1361 c0 -8 22 -36 50 -63 48 -46 49 -48 25 -54 -25 -6 -80 19
-101 45 -8 10 -28 14 -62 12 -39 -1 -53 2 -64 16 -7 10 -26 18 -43 18 -16 1
-46 5 -65 9 -30 8 -33 7 -22 -7 7 -8 26 -20 42 -27 36 -15 47 -40 24 -57 -23
-17 -96 -17 -113 0 -10 10 -15 8 -27 -8 -27 -37 -13 -57 75 -109 l84 -49 -6
-208 -6 -208 38 -31 c66 -51 67 -49 70 125 2 66 4 122 7 124 2 2 16 -1 30 -8
l27 -12 -7 -101 c-4 -56 -12 -110 -17 -120 -8 -15 -4 -25 22 -49 34 -32 88
-64 95 -56 3 2 6 63 7 135 2 73 6 135 10 138 3 4 18 -1 33 -11 26 -17 26 -17
19 -108 -3 -51 -11 -102 -17 -114 -14 -28 -2 -44 60 -80 42 -25 46 -25 57 -9
8 10 11 33 9 54 -3 20 -1 63 3 94 l8 57 48 -29 c45 -29 47 -32 47 -75 0 -24
-7 -63 -16 -85 -19 -48 -15 -55 56 -94 63 -34 81 -29 78 21 -1 21 -1 62 0 91
2 44 5 53 19 50 11 -2 20 -22 29 -67 18 -89 57 -149 117 -179 40 -21 52 -23
72 -14 22 10 25 9 25 -9 0 -66 -40 -71 -100 -13 -52 50 -140 82 -140 51 0 -22
93 -105 140 -126 68 -29 139 -35 186 -17 59 24 68 46 66 154 -2 109 -14 106
129 36 50 -25 193 -88 318 -141 124 -52 281 -121 348 -153 67 -32 132 -61 143
-65 11 -4 18 -10 16 -14 -8 -12 20 -13 352 -17 l322 -5 0 128 0 128 -173 2
c-185 3 -234 8 -255 29 -8 9 -36 14 -72 14 -32 0 -60 5 -62 11 -2 5 -24 12
-48 14 -25 2 -65 9 -90 15 -25 6 -57 10 -72 7 -18 -2 -28 1 -28 9 0 8 -22 14
-62 17 -58 5 -95 10 -155 23 -13 2 -23 11 -23 19 0 7 -9 17 -20 20 -11 3 -20
11 -20 16 0 14 38 11 43 -3 3 -7 6 -4 6 8 1 15 -10 26 -39 40 -22 10 -40 22
-40 25 0 3 -19 12 -42 19 -24 7 -48 20 -54 27 -7 8 -16 13 -20 11 -5 -2 -22 2
-39 9 -16 6 -46 14 -66 17 -19 4 -57 20 -82 36 -36 22 -47 36 -47 55 0 14 -3
25 -7 26 -5 0 -32 2 -61 4 -29 1 -65 8 -78 16 -22 11 -25 19 -24 59 2 64 1 70
-11 70 -7 0 -9 -10 -5 -25 5 -18 0 -31 -15 -46 -11 -11 -18 -27 -15 -35 13
-33 -38 -81 -65 -62 -11 8 -10 9 4 4 9 -3 17 -1 17 4 0 13 -34 30 -58 30 -13
0 -24 10 -31 31 -6 17 -15 28 -21 24 -6 -3 -7 0 -4 9 3 9 11 13 18 9 6 -4 5 1
-3 10 -12 15 -10 21 15 44 25 23 26 28 12 31 -10 2 -18 8 -18 13 0 6 -4 8 -9
4 -5 -3 -12 4 -16 15 -4 11 -11 17 -17 14 -7 -4 -6 -9 2 -14 8 -5 6 -9 -6 -14
-10 -4 -20 -2 -23 3 -6 9 -91 -2 -111 -14 -5 -3 -14 1 -22 8 -7 8 -26 17 -41
21 -32 8 -67 35 -67 53 0 7 -5 12 -11 11 -6 -2 -19 12 -30 31 -10 19 -24 38
-30 42 -7 4 -9 14 -6 22 4 10 -3 22 -19 31 -13 9 -24 24 -24 33 0 26 -88 103
-150 131 -30 14 -67 39 -82 56 -17 18 -28 25 -28 17z m-149 -122 c7 -14 6 -19
-4 -19 -17 0 -37 20 -37 37 0 17 28 5 41 -18z m299 -32 c0 -7 -4 -19 -10 -27
-6 -9 -5 -17 3 -22 9 -6 9 -8 0 -8 -30 0 -57 62 -37 83 9 9 44 -11 44 -26z
m-125 -19 c32 -14 32 -27 0 -20 -14 2 -25 8 -25 12 0 5 -8 11 -17 13 -16 4
-17 5 -1 6 9 0 29 -4 43 -11z m-166 -40 c40 -13 57 -15 62 -7 4 7 15 9 25 5
13 -5 15 -9 7 -14 -20 -13 99 -55 149 -53 20 1 39 -3 43 -9 3 -5 14 -10 23
-10 10 0 2 10 -21 26 -21 14 -36 28 -33 31 7 7 76 -45 74 -55 -1 -4 8 -27 20
-52 17 -36 22 -40 22 -21 0 24 0 24 22 5 21 -19 21 -19 15 1 -6 17 -4 16 14
-5 11 -13 26 -25 34 -26 13 -2 55 -39 55 -50 0 -3 -6 -2 -12 1 -7 3 -3 -2 10
-11 12 -9 22 -21 22 -26 0 -5 9 -19 20 -31 11 -12 18 -27 15 -35 -2 -7 -1 -11
4 -8 5 3 28 -11 52 -32 24 -21 59 -48 77 -61 18 -12 30 -26 27 -31 -3 -5 2
-13 11 -18 26 -15 1 -24 -80 -28 -62 -3 -80 -1 -122 21 -27 14 -54 25 -60 25
-6 0 -19 9 -29 20 -10 11 -22 17 -26 14 -12 -7 -58 28 -59 44 0 6 -7 12 -16
12 -8 0 -32 18 -51 40 -33 36 -64 56 -48 30 8 -13 -8 -13 -40 2 -22 10 -29 20
-27 40 1 3 -5 12 -13 18 -12 10 -16 9 -21 -3 -8 -21 -61 -3 -69 23 -3 11 -12
17 -19 14 -21 -8 -83 24 -89 46 -7 26 7 33 49 26 27 -6 34 -4 34 9 0 14 3 14
30 0 17 -9 30 -23 30 -33 0 -12 14 -22 48 -31 26 -8 53 -19 60 -24 11 -9 13
-3 10 28 -3 38 -5 40 -45 48 -30 6 -49 17 -63 37 -17 24 -25 28 -53 23 -28 -4
-37 0 -58 24 -16 20 -35 29 -59 31 -40 3 -80 26 -80 47 0 17 49 11 129 -17z
m336 -18 c-3 -5 -1 -10 6 -10 7 0 10 -3 6 -6 -9 -9 -28 6 -22 17 4 5 8 9 11 9
3 0 2 -4 -1 -10z m499 -411 c-3 -5 -10 -7 -15 -3 -5 3 -7 10 -3 15 3 5 10 7
15 3 5 -3 7 -10 3 -15z m-24 -39 c0 -5 -7 -10 -16 -10 -8 0 -12 5 -9 10 3 6
10 10 16 10 5 0 9 -4 9 -10z m-40 -111 c0 -6 -4 -7 -10 -4 -5 3 -10 11 -10 16
0 6 5 7 10 4 6 -3 10 -11 10 -16z m-20 -25 c0 -8 -5 -12 -10 -9 -6 4 -8 11 -5
16 9 14 15 11 15 -7z m82 -84 c4 -3 -3 -19 -16 -35 -13 -17 -27 -28 -30 -25
-3 3 -8 25 -12 48 l-7 43 29 -13 c16 -6 32 -14 36 -18z m688 5 c0 -8 -9 -15
-20 -15 -11 0 -20 7 -20 15 0 8 9 15 20 15 11 0 20 -7 20 -15z"/>
<path d="M3352 1308 c-7 -7 -12 -36 -12 -66 l0 -53 -32 3 c-47 4 -48 -24 -3
-69 l36 -36 -2 -136 -2 -136 38 -27 c65 -47 65 -47 65 128 l0 156 29 -7 c17
-3 32 -2 36 5 8 13 -30 76 -50 84 -21 8 -21 96 -1 96 8 0 18 -4 21 -10 11 -17
35 -11 35 9 0 33 -56 71 -104 71 -23 0 -47 -5 -54 -12z"/>
<path d="M2754 1289 c29 -102 37 -144 43 -217 5 -74 9 -85 32 -101 31 -22 66
-30 66 -16 0 6 -4 38 -8 72 -8 60 -7 62 33 124 22 35 46 66 52 70 15 10 -5 35
-43 55 -36 18 -36 18 -53 -13 -14 -27 -15 -27 -16 -5 0 23 -24 37 -84 49 -27
6 -29 4 -22 -18z"/>
<path d="M3025 1226 c-26 -40 -31 -149 -10 -222 23 -79 42 -103 114 -142 l61
-33 29 29 c61 60 67 198 15 309 -18 38 -84 73 -149 81 -38 4 -45 1 -60 -22z
m143 -169 c4 -87 -8 -137 -32 -137 -35 0 -57 207 -27 244 13 16 16 16 35 -4
17 -17 22 -36 24 -103z"/>
<path d="M3538 958 c-2 -101 -5 -189 -8 -197 -6 -16 73 -81 98 -81 15 0 17 18
17 172 0 95 4 185 8 200 8 25 5 30 -39 58 -26 16 -54 30 -61 30 -9 0 -13 -44
-15 -182z"/>
<path d="M4670 881 c0 -5 6 -12 13 -15 6 -3 2 -3 -10 0 -35 8 -27 -4 13 -21
45 -18 45 -18 38 -1 -3 8 -12 12 -20 9 -10 -4 -12 0 -8 11 4 10 13 15 21 12 8
-3 11 -1 8 4 -8 13 -55 13 -55 1z"/>
<path d="M4610 830 c0 -5 5 -10 10 -10 6 0 10 5 10 10 0 6 -4 10 -10 10 -5 0
-10 -4 -10 -10z"/>
<path d="M4660 809 c0 -5 -4 -8 -9 -5 -5 3 -14 0 -20 -8 -9 -10 -2 -17 29 -31
44 -20 60 -16 36 8 -12 12 -13 17 -3 20 9 4 8 8 -3 16 -19 14 -30 14 -30 0z"/>
<path d="M2852 769 c2 -7 10 -15 17 -17 8 -3 12 1 9 9 -2 7 -10 15 -17 17 -8
3 -12 -1 -9 -9z"/>
<path d="M4670 740 c8 -5 20 -10 25 -10 6 0 3 5 -5 10 -8 5 -19 10 -25 10 -5
0 -3 -5 5 -10z"/>
<path d="M6108 603 c6 -2 18 -2 25 0 6 3 1 5 -13 5 -14 0 -19 -2 -12 -5z"/>
<path d="M6168 593 c6 -2 18 -2 25 0 6 3 1 5 -13 5 -14 0 -19 -2 -12 -5z"/>
<path d="M6300 570 c25 -8 87 -13 79 -6 -2 2 -26 6 -54 9 -34 4 -42 3 -25 -3z"/>
<path d="M4310 200 c0 -6 8 -14 18 -17 9 -4 20 -11 23 -16 13 -19 30 3 19 24
-11 20 -60 27 -60 9z"/>
</g>
</svg>
